<?xml version="1.0" encoding="UTF-8"?>
<!--Generator: Apple Native CoreSVG 232.5-->
<!DOCTYPE svg
PUBLIC "-//W3C//DTD SVG 1.1//EN"
       "http://www.w3.org/Graphics/SVG/1.1/DTD/svg11.dtd">
<svg version="1.1" xmlns="http://www.w3.org/2000/svg" xmlns:xlink="http://www.w3.org/1999/xlink" width="3300" height="2200">
 <!--glyph: "", point size: 100.0, font version: "19.0d8e1", template writer version: "128"-->
 <style>.monochrome-0 {-sfsymbols-variable-threshold:0.0;-sfsymbols-motion-group:0;-sfsymbols-always-pulses:true}

.multicolor-0:tintColor {-sfsymbols-clear-behind:true;-sfsymbols-variable-threshold:0.0;-sfsymbols-motion-group:0;-sfsymbols-always-pulses:true}

.hierarchical-0:primary {-sfsymbols-clear-behind:true;-sfsymbols-variable-threshold:0.0;-sfsymbols-motion-group:0}

.SFSymbolsPreviewWireframe {fill:none;opacity:1.0;stroke:black;stroke-width:0.5}
</style>
 <g id="Notes">
  <rect height="2200" id="artboard" style="fill:white;opacity:1" width="3300" x="0" y="0"/>
  <line style="fill:none;stroke:black;opacity:1;stroke-width:0.5;" x1="263" x2="3036" y1="292" y2="292"/>
  <text style="stroke:none;fill:black;font-family:sans-serif;font-size:13;font-weight:bold;" transform="matrix(1 0 0 1 263 322)">Weight/Scale Variations</text>
  <text style="stroke:none;fill:black;font-family:sans-serif;font-size:13;text-anchor:middle;" transform="matrix(1 0 0 1 559.711 322)">Ultralight</text>
  <text style="stroke:none;fill:black;font-family:sans-serif;font-size:13;text-anchor:middle;" transform="matrix(1 0 0 1 856.422 322)">Thin</text>
  <text style="stroke:none;fill:black;font-family:sans-serif;font-size:13;text-anchor:middle;" transform="matrix(1 0 0 1 1153.13 322)">Light</text>
  <text style="stroke:none;fill:black;font-family:sans-serif;font-size:13;text-anchor:middle;" transform="matrix(1 0 0 1 1449.84 322)">Regular</text>
  <text style="stroke:none;fill:black;font-family:sans-serif;font-size:13;text-anchor:middle;" transform="matrix(1 0 0 1 1746.56 322)">Medium</text>
  <text style="stroke:none;fill:black;font-family:sans-serif;font-size:13;text-anchor:middle;" transform="matrix(1 0 0 1 2043.27 322)">Semibold</text>
  <text style="stroke:none;fill:black;font-family:sans-serif;font-size:13;text-anchor:middle;" transform="matrix(1 0 0 1 2339.98 322)">Bold</text>
  <text style="stroke:none;fill:black;font-family:sans-serif;font-size:13;text-anchor:middle;" transform="matrix(1 0 0 1 2636.69 322)">Heavy</text>
  <text style="stroke:none;fill:black;font-family:sans-serif;font-size:13;text-anchor:middle;" transform="matrix(1 0 0 1 2933.4 322)">Black</text>
  <line style="fill:none;stroke:black;opacity:1;stroke-width:0.5;" x1="263" x2="3036" y1="1903" y2="1903"/>
  <g transform="matrix(0.2 0 0 0.2 263 1933)">
   <path d="m46.2402 4.15039c21.5332 0 39.4531-17.8711 39.4531-39.4043s-17.9688-39.4043-39.502-39.4043c-21.4844 0-39.3555 17.8711-39.3555 39.4043s17.9199 39.4043 39.4043 39.4043Zm0-7.42188c-17.7246 0-31.8848-14.209-31.8848-31.9824s14.1113-31.9824 31.8359-31.9824c17.7734 0 32.0312 14.209 32.0312 31.9824s-14.209 31.9824-31.9824 31.9824Zm-17.9688-31.9824c0 2.14844 1.51367 3.61328 3.75977 3.61328h10.498v10.5957c0 2.19727 1.46484 3.71094 3.61328 3.71094 2.24609 0 3.71094-1.51367 3.71094-3.71094v-10.5957h10.5957c2.19727 0 3.71094-1.46484 3.71094-3.61328 0-2.19727-1.51367-3.71094-3.71094-3.71094h-10.5957v-10.5469c0-2.24609-1.46484-3.75977-3.71094-3.75977-2.14844 0-3.61328 1.51367-3.61328 3.75977v10.5469h-10.498c-2.24609 0-3.75977 1.51367-3.75977 3.71094Z"/>
  </g>
  <g transform="matrix(0.2 0 0 0.2 281.506 1933)">
   <path d="m58.5449 14.5508c27.2461 0 49.8047-22.6074 49.8047-49.8047 0-27.2461-22.6074-49.8047-49.8535-49.8047-27.1973 0-49.7559 22.5586-49.7559 49.8047 0 27.1973 22.6074 49.8047 49.8047 49.8047Zm0-8.30078c-23.0469 0-41.4551-18.457-41.4551-41.5039s18.3594-41.5039 41.4062-41.5039 41.5527 18.457 41.5527 41.5039-18.457 41.5039-41.5039 41.5039Zm-22.6562-41.5039c0 2.39258 1.66016 4.00391 4.15039 4.00391h14.3555v14.4043c0 2.44141 1.66016 4.15039 4.05273 4.15039 2.44141 0 4.15039-1.66016 4.15039-4.15039v-14.4043h14.4043c2.44141 0 4.15039-1.61133 4.15039-4.00391 0-2.44141-1.70898-4.15039-4.15039-4.15039h-14.4043v-14.3555c0-2.49023-1.70898-4.19922-4.15039-4.19922-2.39258 0-4.05273 1.70898-4.05273 4.19922v14.3555h-14.3555c-2.49023 0-4.15039 1.70898-4.15039 4.15039Z"/>
  </g>
  <g transform="matrix(0.2 0 0 0.2 304.924 1933)">
   <path d="m74.8535 28.3203c34.8145 0 63.623-28.8086 63.623-63.5742 0-34.8145-28.8574-63.623-63.6719-63.623-34.7656 0-63.5254 28.8086-63.5254 63.623 0 34.7656 28.8086 63.5742 63.5742 63.5742Zm0-9.08203c-30.1758 0-54.4434-24.3164-54.4434-54.4922 0-30.2246 24.2188-54.4922 54.3945-54.4922 30.2246 0 54.541 24.2676 54.541 54.4922 0 30.1758-24.2676 54.4922-54.4922 54.4922Zm-28.8574-54.4922c0 2.58789 1.85547 4.39453 4.58984 4.39453h19.7266v19.7754c0 2.68555 1.85547 4.58984 4.44336 4.58984 2.68555 0 4.54102-1.85547 4.54102-4.58984v-19.7754h19.7754c2.68555 0 4.58984-1.80664 4.58984-4.39453 0-2.73438-1.85547-4.58984-4.58984-4.58984h-19.7754v-19.7266c0-2.73438-1.85547-4.63867-4.54102-4.63867-2.58789 0-4.44336 1.9043-4.44336 4.63867v19.7266h-19.7266c-2.73438 0-4.58984 1.85547-4.58984 4.58984Z"/>
  </g>
  <text style="stroke:none;fill:black;font-family:sans-serif;font-size:13;font-weight:bold;" transform="matrix(1 0 0 1 263 1953)">Design Variations</text>
  <text style="stroke:none;fill:black;font-family:sans-serif;font-size:13;" transform="matrix(1 0 0 1 263 1971)">Symbols are supported in up to nine weights and three scales.</text>
  <text style="stroke:none;fill:black;font-family:sans-serif;font-size:13;" transform="matrix(1 0 0 1 263 1989)">For optimal layout with text and other symbols, vertically align</text>
  <text style="stroke:none;fill:black;font-family:sans-serif;font-size:13;" transform="matrix(1 0 0 1 263 2007)">symbols with the adjacent text.</text>
  <line style="fill:none;stroke:#00AEEF;stroke-width:0.5;opacity:1.0;" x1="776" x2="776" y1="1919" y2="1933"/>
  <g transform="matrix(0.2 0 0 0.2 776 1933)">
   <path d="m16.5527 0.78125c2.58789 0 3.85742-0.976562 4.78516-3.71094l6.29883-17.2363h28.8086l6.29883 17.2363c0.927734 2.73438 2.19727 3.71094 4.73633 3.71094 2.58789 0 4.24805-1.5625 4.24805-4.00391 0-0.830078-0.146484-1.61133-0.537109-2.63672l-22.9004-60.9863c-1.12305-2.97852-3.125-4.49219-6.25-4.49219-3.02734 0-5.07812 1.46484-6.15234 4.44336l-22.9004 61.084c-0.390625 1.02539-0.537109 1.80664-0.537109 2.63672 0 2.44141 1.5625 3.95508 4.10156 3.95508Zm13.4766-28.3691 11.8652-32.8613h0.244141l11.8652 32.8613Z"/>
  </g>
  <line style="fill:none;stroke:#00AEEF;stroke-width:0.5;opacity:1.0;" x1="792.836" x2="792.836" y1="1919" y2="1933"/>
  <text style="stroke:none;fill:black;font-family:sans-serif;font-size:13;font-weight:bold;" transform="matrix(1 0 0 1 776 1953)">Margins</text>
  <text style="stroke:none;fill:black;font-family:sans-serif;font-size:13;" transform="matrix(1 0 0 1 776 1971)">Leading and trailing margins on the left and right side of each symbol</text>
  <text style="stroke:none;fill:black;font-family:sans-serif;font-size:13;" transform="matrix(1 0 0 1 776 1989)">can be adjusted by modifying the x-location of the margin guidelines.</text>
  <text style="stroke:none;fill:black;font-family:sans-serif;font-size:13;" transform="matrix(1 0 0 1 776 2007)">Modifications are automatically applied proportionally to all</text>
  <text style="stroke:none;fill:black;font-family:sans-serif;font-size:13;" transform="matrix(1 0 0 1 776 2025)">scales and weights.</text>
  <g transform="matrix(0.2 0 0 0.2 1289 1933)">
   <path d="m14.209 9.32617 8.49609 8.54492c4.29688 4.3457 9.22852 4.05273 13.8672-1.07422l53.4668-58.9355-4.83398-4.88281-53.0762 58.3984c-1.75781 2.00195-3.41797 2.49023-5.76172 0.146484l-5.85938-5.81055c-2.34375-2.29492-1.80664-4.00391 0.195312-5.81055l57.373-54.0039-4.88281-4.83398-57.959 54.4434c-4.93164 4.58984-5.32227 9.47266-1.02539 13.8184Zm32.0801-90.9668c-2.09961 2.05078-2.24609 4.93164-1.07422 6.88477 1.17188 1.80664 3.4668 2.97852 6.68945 2.14844 7.32422-1.70898 14.9414-2.00195 22.0703 2.68555l-2.92969 7.27539c-1.70898 4.15039-0.830078 7.08008 1.85547 9.81445l11.4746 11.5723c2.44141 2.44141 4.49219 2.53906 7.32422 2.05078l5.32227-0.976562 3.32031 3.36914-0.195312 2.7832c-0.195312 2.49023 0.439453 4.39453 2.88086 6.78711l3.80859 3.71094c2.39258 2.39258 5.46875 2.53906 7.8125 0.195312l14.5508-14.5996c2.34375-2.34375 2.24609-5.32227-0.146484-7.71484l-3.85742-3.80859c-2.39258-2.39258-4.24805-3.17383-6.64062-2.97852l-2.88086 0.244141-3.22266-3.17383 1.2207-5.61523c0.634766-2.83203-0.146484-5.0293-3.07617-7.95898l-10.9863-10.9375c-16.6992-16.6016-38.8672-16.2109-53.3203-1.75781Zm7.4707 1.85547c12.1582-8.88672 28.6133-7.37305 39.7461 3.75977l12.1582 12.0605c1.17188 1.17188 1.36719 2.09961 1.02539 3.80859l-1.61133 7.42188 7.51953 7.42188 4.93164-0.292969c1.26953-0.0488281 1.66016 0.0488281 2.63672 1.02539l2.88086 2.88086-12.207 12.207-2.88086-2.88086c-0.976562-0.976562-1.12305-1.36719-1.07422-2.68555l0.341797-4.88281-7.4707-7.42188-7.61719 1.26953c-1.61133 0.341797-2.34375 0.195312-3.56445-0.976562l-10.0098-10.0098c-1.26953-1.17188-1.41602-2.00195-0.634766-3.85742l4.39453-10.4492c-7.8125-7.27539-17.9688-10.4004-28.125-7.42188-0.78125 0.195312-1.07422-0.439453-0.439453-0.976562Z"/>
  </g>
  <text style="stroke:none;fill:black;font-family:sans-serif;font-size:13;font-weight:bold;" transform="matrix(1 0 0 1 1289 1953)">Exporting</text>
  <text style="stroke:none;fill:black;font-family:sans-serif;font-size:13;" transform="matrix(1 0 0 1 1289 1971)">Symbols should be outlined when exporting to ensure the</text>
  <text style="stroke:none;fill:black;font-family:sans-serif;font-size:13;" transform="matrix(1 0 0 1 1289 1989)">design is preserved when submitting to Xcode.</text>
  <text id="template-version" style="stroke:none;fill:black;font-family:sans-serif;font-size:13;text-anchor:end;" transform="matrix(1 0 0 1 3036 1933)">Template v.5.0</text>
  <text style="stroke:none;fill:black;font-family:sans-serif;font-size:13;text-anchor:end;" transform="matrix(1 0 0 1 3036 1951)">Requires Xcode 15 or greater</text>
  <text id="descriptive-name" style="stroke:none;fill:black;font-family:sans-serif;font-size:13;text-anchor:end;" transform="matrix(1 0 0 1 3036 1969)">Generated from gitCockpit</text>
  <text style="stroke:none;fill:black;font-family:sans-serif;font-size:13;text-anchor:end;" transform="matrix(1 0 0 1 3036 1987)">Typeset at 100.0 points</text>
  <text style="stroke:none;fill:black;font-family:sans-serif;font-size:13;" transform="matrix(1 0 0 1 263 726)">Small</text>
  <text style="stroke:none;fill:black;font-family:sans-serif;font-size:13;" transform="matrix(1 0 0 1 263 1156)">Medium</text>
  <text style="stroke:none;fill:black;font-family:sans-serif;font-size:13;" transform="matrix(1 0 0 1 263 1586)">Large</text>
 </g>
 <g id="Guides">
  <g id="H-reference" style="fill:#27AAE1;stroke:none;" transform="matrix(1 0 0 1 339 696)">
   <path d="M0.993654 0L3.63775 0L29.3281-67.1323L30.0303-67.1323L30.0303-70.459L28.1226-70.459ZM11.6885-24.4799L46.9815-24.4799L46.2315-26.7285L12.4385-26.7285ZM55.1196 0L57.7637 0L30.6382-70.459L29.4326-70.459L29.4326-67.1323Z"/>
  </g>
  <line id="Baseline-S" style="fill:none;stroke:#27AAE1;opacity:1;stroke-width:0.5;" x1="263" x2="3036" y1="696" y2="696"/>
  <line id="Capline-S" style="fill:none;stroke:#27AAE1;opacity:1;stroke-width:0.5;" x1="263" x2="3036" y1="625.541" y2="625.541"/>
  <g id="H-reference" style="fill:#27AAE1;stroke:none;" transform="matrix(1 0 0 1 339 1126)">
   <path d="M0.993654 0L3.63775 0L29.3281-67.1323L30.0303-67.1323L30.0303-70.459L28.1226-70.459ZM11.6885-24.4799L46.9815-24.4799L46.2315-26.7285L12.4385-26.7285ZM55.1196 0L57.7637 0L30.6382-70.459L29.4326-70.459L29.4326-67.1323Z"/>
  </g>
  <line id="Baseline-M" style="fill:none;stroke:#27AAE1;opacity:1;stroke-width:0.5;" x1="263" x2="3036" y1="1126" y2="1126"/>
  <line id="Capline-M" style="fill:none;stroke:#27AAE1;opacity:1;stroke-width:0.5;" x1="263" x2="3036" y1="1055.54" y2="1055.54"/>
  <g id="H-reference" style="fill:#27AAE1;stroke:none;" transform="matrix(1 0 0 1 339 1556)">
   <path d="M0.993654 0L3.63775 0L29.3281-67.1323L30.0303-67.1323L30.0303-70.459L28.1226-70.459ZM11.6885-24.4799L46.9815-24.4799L46.2315-26.7285L12.4385-26.7285ZM55.1196 0L57.7637 0L30.6382-70.459L29.4326-70.459L29.4326-67.1323Z"/>
  </g>
  <line id="Baseline-L" style="fill:none;stroke:#27AAE1;opacity:1;stroke-width:0.5;" x1="263" x2="3036" y1="1556" y2="1556"/>
  <line id="Capline-L" style="fill:none;stroke:#27AAE1;opacity:1;stroke-width:0.5;" x1="263" x2="3036" y1="1485.54" y2="1485.54"/>
  <line id="left-margin-Regular-M" style="fill:none;stroke:#00AEEF;stroke-width:0.5;opacity:1.0;" x1="1398.47" x2="1398.47" y1="1030.79" y2="1150.12"/>
  <line id="right-margin-Regular-M" style="fill:none;stroke:#00AEEF;stroke-width:0.5;opacity:1.0;" x1="1501.22" x2="1501.22" y1="1030.79" y2="1150.12"/>
 </g>
 <g id="Symbols">
  <g id="Black-L" transform="matrix(1 0 0 1 2867.89 1556)">
   <path class="monochrome-0 multicolor-0:tintColor hierarchical-0:primary SFSymbolsPreviewWireframe" d="M73.8465-13.9996C91.0595-13.5296 104.723-17.0716 106.36-35.1436C107.117-43.5056 104.437-53.5966 100.771-61.2616C100.588-61.5286 100.426-61.8626 100.332-62.2856C100.25-62.6556 100.241-63.0376 100.305-63.4106C100.364-63.7506 100.48-64.0696 100.645-64.3586C100.927-65.0446 103.263-70.7196 104.169-72.9746C104.984-75.0026 107.145-76.2006 109.362-75.8536C109.364-75.8536 109.366-75.8526 109.368-75.8526C120.968-74.0116 129.341-63.7326 128.296-52.2006C128.296-52.2006 124.88-14.4716 124.88-14.4716C123.788-2.41955 112.823 6.46445 100.409 5.35545C100.409 5.35545 80.5435 1.54745 70.7465 0.672447C67.1975 0.355447 63.6275 0.356447 60.0785 0.676447C50.3335 1.55345 30.6455 5.35845 30.6455 5.35845C18.2315 6.47545 7.26249-2.40155 6.16449-14.4526C6.16449-14.4526 2.72649-52.1786 2.72649-52.1786C1.67749-63.6846 10.0045-73.9486 21.5635-75.8286C21.5645-75.8286 21.5655-75.8286 21.5675-75.8296C23.8685-76.1996 26.1015-74.9036 26.8485-72.7676C27.5985-70.6346 29.4815-65.6356 29.8485-64.6626C30.1755-64.2316 30.3845-63.7126 30.4335-63.1496C30.4715-62.7196 30.4125-62.2866 30.2605-61.8806C30.1785-61.6606 30.0815-61.4676 29.9735-61.2976C26.0735-53.6236 25.3775-43.6486 26.1415-35.2686C26.7125-28.9976 28.5395-24.4226 31.5065-21.1846C34.9465-17.4316 39.8575-15.5346 45.7015-14.6516C49.2355-14.1176 53.0965-13.9596 57.2015-14.0476C57.2015-19.7316 57.2005-26.4126 57.1975-30.8366C57.1975-33.1556 56.4535-35.3896 55.1115-37.0986C54.4875-37.8996 54.1065-38.9626 54.1065-40.1276L54.1065-49.1356C54.1065-51.6216 55.8365-53.6396 57.9675-53.6396L73.0815-53.6396C75.2125-53.6396 76.9425-51.6216 76.9425-49.1356L76.9425-40.1276C76.9425-38.9626 76.5625-37.8996 75.9345-37.1026C74.5915-35.3916 73.8465-33.1566 73.8465-30.8366L73.8465-13.9996ZM100.578-61.6626L100.584-61.6486L100.576-61.6656L100.578-61.6626ZM100.564-61.6906L100.57-61.6776L100.564-61.6926L100.564-61.6906ZM100.551-61.7196L100.556-61.7086L100.551-61.7196L100.551-61.7196Z"/>
  </g>
  <g id="Heavy-L" transform="matrix(1 0 0 1 2571.18 1556)">
   <path class="monochrome-0 multicolor-0:tintColor hierarchical-0:primary SFSymbolsPreviewWireframe" d="M73.8465-13.9996C91.0595-13.5296 104.723-17.0716 106.36-35.1436C107.117-43.5056 104.437-53.5966 100.771-61.2616C100.588-61.5286 100.426-61.8626 100.332-62.2856C100.25-62.6556 100.241-63.0376 100.305-63.4106C100.364-63.7506 100.48-64.0696 100.645-64.3586C100.927-65.0446 103.263-70.7196 104.169-72.9746C104.984-75.0026 107.145-76.2006 109.362-75.8536C109.364-75.8536 109.366-75.8526 109.368-75.8526C120.968-74.0116 129.341-63.7326 128.296-52.2006C128.296-52.2006 124.88-14.4716 124.88-14.4716C123.788-2.41955 112.823 6.46445 100.409 5.35545C100.409 5.35545 80.5435 1.54745 70.7465 0.672447C67.1975 0.355447 63.6275 0.356447 60.0785 0.676447C50.3335 1.55345 30.6455 5.35845 30.6455 5.35845C18.2315 6.47545 7.26249-2.40155 6.16449-14.4526C6.16449-14.4526 2.72649-52.1786 2.72649-52.1786C1.67749-63.6846 10.0045-73.9486 21.5635-75.8286C21.5645-75.8286 21.5655-75.8286 21.5675-75.8296C23.8685-76.1996 26.1015-74.9036 26.8485-72.7676C27.5985-70.6346 29.4815-65.6356 29.8485-64.6626C30.1755-64.2316 30.3845-63.7126 30.4335-63.1496C30.4715-62.7196 30.4125-62.2866 30.2605-61.8806C30.1785-61.6606 30.0815-61.4676 29.9735-61.2976C26.0735-53.6236 25.3775-43.6486 26.1415-35.2686C26.7125-28.9976 28.5395-24.4226 31.5065-21.1846C34.9465-17.4316 39.8575-15.5346 45.7015-14.6516C49.2355-14.1176 53.0965-13.9596 57.2015-14.0476C57.2015-19.7316 57.2005-26.4126 57.1975-30.8366C57.1975-33.1556 56.4535-35.3896 55.1115-37.0986C54.4875-37.8996 54.1065-38.9626 54.1065-40.1276L54.1065-49.1356C54.1065-51.6216 55.8365-53.6396 57.9675-53.6396L73.0815-53.6396C75.2125-53.6396 76.9425-51.6216 76.9425-49.1356L76.9425-40.1276C76.9425-38.9626 76.5625-37.8996 75.9345-37.1026C74.5915-35.3916 73.8465-33.1566 73.8465-30.8366L73.8465-13.9996ZM100.578-61.6626L100.584-61.6486L100.576-61.6656L100.578-61.6626ZM100.564-61.6906L100.57-61.6776L100.564-61.6926L100.564-61.6906ZM100.551-61.7196L100.556-61.7086L100.551-61.7196L100.551-61.7196Z"/>
  </g>
  <g id="Bold-L" transform="matrix(1 0 0 1 2274.47 1556)">
   <path class="monochrome-0 multicolor-0:tintColor hierarchical-0:primary SFSymbolsPreviewWireframe" d="M73.8465-13.9996C91.0595-13.5296 104.723-17.0716 106.36-35.1436C107.117-43.5056 104.437-53.5966 100.771-61.2616C100.588-61.5286 100.426-61.8626 100.332-62.2856C100.25-62.6556 100.241-63.0376 100.305-63.4106C100.364-63.7506 100.48-64.0696 100.645-64.3586C100.927-65.0446 103.263-70.7196 104.169-72.9746C104.984-75.0026 107.145-76.2006 109.362-75.8536C109.364-75.8536 109.366-75.8526 109.368-75.8526C120.968-74.0116 129.341-63.7326 128.296-52.2006C128.296-52.2006 124.88-14.4716 124.88-14.4716C123.788-2.41955 112.823 6.46445 100.409 5.35545C100.409 5.35545 80.5435 1.54745 70.7465 0.672447C67.1975 0.355447 63.6275 0.356447 60.0785 0.676447C50.3335 1.55345 30.6455 5.35845 30.6455 5.35845C18.2315 6.47545 7.26249-2.40155 6.16449-14.4526C6.16449-14.4526 2.72649-52.1786 2.72649-52.1786C1.67749-63.6846 10.0045-73.9486 21.5635-75.8286C21.5645-75.8286 21.5655-75.8286 21.5675-75.8296C23.8685-76.1996 26.1015-74.9036 26.8485-72.7676C27.5985-70.6346 29.4815-65.6356 29.8485-64.6626C30.1755-64.2316 30.3845-63.7126 30.4335-63.1496C30.4715-62.7196 30.4125-62.2866 30.2605-61.8806C30.1785-61.6606 30.0815-61.4676 29.9735-61.2976C26.0735-53.6236 25.3775-43.6486 26.1415-35.2686C26.7125-28.9976 28.5395-24.4226 31.5065-21.1846C34.9465-17.4316 39.8575-15.5346 45.7015-14.6516C49.2355-14.1176 53.0965-13.9596 57.2015-14.0476C57.2015-19.7316 57.2005-26.4126 57.1975-30.8366C57.1975-33.1556 56.4535-35.3896 55.1115-37.0986C54.4875-37.8996 54.1065-38.9626 54.1065-40.1276L54.1065-49.1356C54.1065-51.6216 55.8365-53.6396 57.9675-53.6396L73.0815-53.6396C75.2125-53.6396 76.9425-51.6216 76.9425-49.1356L76.9425-40.1276C76.9425-38.9626 76.5625-37.8996 75.9345-37.1026C74.5915-35.3916 73.8465-33.1566 73.8465-30.8366L73.8465-13.9996ZM100.578-61.6626L100.584-61.6486L100.576-61.6656L100.578-61.6626ZM100.564-61.6906L100.57-61.6776L100.564-61.6926L100.564-61.6906ZM100.551-61.7196L100.556-61.7086L100.551-61.7196L100.551-61.7196Z"/>
  </g>
  <g id="Semibold-L" transform="matrix(1 0 0 1 1977.76 1556)">
   <path class="monochrome-0 multicolor-0:tintColor hierarchical-0:primary SFSymbolsPreviewWireframe" d="M73.8465-13.9996C91.0595-13.5296 104.723-17.0716 106.36-35.1436C107.117-43.5056 104.437-53.5966 100.771-61.2616C100.588-61.5286 100.426-61.8626 100.332-62.2856C100.25-62.6556 100.241-63.0376 100.305-63.4106C100.364-63.7506 100.48-64.0696 100.645-64.3586C100.927-65.0446 103.263-70.7196 104.169-72.9746C104.984-75.0026 107.145-76.2006 109.362-75.8536C109.364-75.8536 109.366-75.8526 109.368-75.8526C120.968-74.0116 129.341-63.7326 128.296-52.2006C128.296-52.2006 124.88-14.4716 124.88-14.4716C123.788-2.41955 112.823 6.46445 100.409 5.35545C100.409 5.35545 80.5435 1.54745 70.7465 0.672447C67.1975 0.355447 63.6275 0.356447 60.0785 0.676447C50.3335 1.55345 30.6455 5.35845 30.6455 5.35845C18.2315 6.47545 7.26249-2.40155 6.16449-14.4526C6.16449-14.4526 2.72649-52.1786 2.72649-52.1786C1.67749-63.6846 10.0045-73.9486 21.5635-75.8286C21.5645-75.8286 21.5655-75.8286 21.5675-75.8296C23.8685-76.1996 26.1015-74.9036 26.8485-72.7676C27.5985-70.6346 29.4815-65.6356 29.8485-64.6626C30.1755-64.2316 30.3845-63.7126 30.4335-63.1496C30.4715-62.7196 30.4125-62.2866 30.2605-61.8806C30.1785-61.6606 30.0815-61.4676 29.9735-61.2976C26.0735-53.6236 25.3775-43.6486 26.1415-35.2686C26.7125-28.9976 28.5395-24.4226 31.5065-21.1846C34.9465-17.4316 39.8575-15.5346 45.7015-14.6516C49.2355-14.1176 53.0965-13.9596 57.2015-14.0476C57.2015-19.7316 57.2005-26.4126 57.1975-30.8366C57.1975-33.1556 56.4535-35.3896 55.1115-37.0986C54.4875-37.8996 54.1065-38.9626 54.1065-40.1276L54.1065-49.1356C54.1065-51.6216 55.8365-53.6396 57.9675-53.6396L73.0815-53.6396C75.2125-53.6396 76.9425-51.6216 76.9425-49.1356L76.9425-40.1276C76.9425-38.9626 76.5625-37.8996 75.9345-37.1026C74.5915-35.3916 73.8465-33.1566 73.8465-30.8366L73.8465-13.9996ZM100.578-61.6626L100.584-61.6486L100.576-61.6656L100.578-61.6626ZM100.564-61.6906L100.57-61.6776L100.564-61.6926L100.564-61.6906ZM100.551-61.7196L100.556-61.7086L100.551-61.7196L100.551-61.7196Z"/>
  </g>
  <g id="Medium-L" transform="matrix(1 0 0 1 1681.04 1556)">
   <path class="monochrome-0 multicolor-0:tintColor hierarchical-0:primary SFSymbolsPreviewWireframe" d="M73.8465-13.9996C91.0595-13.5296 104.723-17.0716 106.36-35.1436C107.117-43.5056 104.437-53.5966 100.771-61.2616C100.588-61.5286 100.426-61.8626 100.332-62.2856C100.25-62.6556 100.241-63.0376 100.305-63.4106C100.364-63.7506 100.48-64.0696 100.645-64.3586C100.927-65.0446 103.263-70.7196 104.169-72.9746C104.984-75.0026 107.145-76.2006 109.362-75.8536C109.364-75.8536 109.366-75.8526 109.368-75.8526C120.968-74.0116 129.341-63.7326 128.296-52.2006C128.296-52.2006 124.88-14.4716 124.88-14.4716C123.788-2.41955 112.823 6.46445 100.409 5.35545C100.409 5.35545 80.5435 1.54745 70.7465 0.672447C67.1975 0.355447 63.6275 0.356447 60.0785 0.676447C50.3335 1.55345 30.6455 5.35845 30.6455 5.35845C18.2315 6.47545 7.26249-2.40155 6.16449-14.4526C6.16449-14.4526 2.72649-52.1786 2.72649-52.1786C1.67749-63.6846 10.0045-73.9486 21.5635-75.8286C21.5645-75.8286 21.5655-75.8286 21.5675-75.8296C23.8685-76.1996 26.1015-74.9036 26.8485-72.7676C27.5985-70.6346 29.4815-65.6356 29.8485-64.6626C30.1755-64.2316 30.3845-63.7126 30.4335-63.1496C30.4715-62.7196 30.4125-62.2866 30.2605-61.8806C30.1785-61.6606 30.0815-61.4676 29.9735-61.2976C26.0735-53.6236 25.3775-43.6486 26.1415-35.2686C26.7125-28.9976 28.5395-24.4226 31.5065-21.1846C34.9465-17.4316 39.8575-15.5346 45.7015-14.6516C49.2355-14.1176 53.0965-13.9596 57.2015-14.0476C57.2015-19.7316 57.2005-26.4126 57.1975-30.8366C57.1975-33.1556 56.4535-35.3896 55.1115-37.0986C54.4875-37.8996 54.1065-38.9626 54.1065-40.1276L54.1065-49.1356C54.1065-51.6216 55.8365-53.6396 57.9675-53.6396L73.0815-53.6396C75.2125-53.6396 76.9425-51.6216 76.9425-49.1356L76.9425-40.1276C76.9425-38.9626 76.5625-37.8996 75.9345-37.1026C74.5915-35.3916 73.8465-33.1566 73.8465-30.8366L73.8465-13.9996ZM100.578-61.6626L100.584-61.6486L100.576-61.6656L100.578-61.6626ZM100.564-61.6906L100.57-61.6776L100.564-61.6926L100.564-61.6906ZM100.551-61.7196L100.556-61.7086L100.551-61.7196L100.551-61.7196Z"/>
  </g>
  <g id="Regular-L" transform="matrix(1 0 0 1 1384.33 1556)">
   <path class="monochrome-0 multicolor-0:tintColor hierarchical-0:primary SFSymbolsPreviewWireframe" d="M73.8465-13.9996C91.0595-13.5296 104.723-17.0716 106.36-35.1436C107.117-43.5056 104.437-53.5966 100.771-61.2616C100.588-61.5286 100.426-61.8626 100.332-62.2856C100.25-62.6556 100.241-63.0376 100.305-63.4106C100.364-63.7506 100.48-64.0696 100.645-64.3586C100.927-65.0446 103.263-70.7196 104.169-72.9746C104.984-75.0026 107.145-76.2006 109.362-75.8536C109.364-75.8536 109.366-75.8526 109.368-75.8526C120.968-74.0116 129.341-63.7326 128.296-52.2006C128.296-52.2006 124.88-14.4716 124.88-14.4716C123.788-2.41955 112.823 6.46445 100.409 5.35545C100.409 5.35545 80.5435 1.54745 70.7465 0.672447C67.1975 0.355447 63.6275 0.356447 60.0785 0.676447C50.3335 1.55345 30.6455 5.35845 30.6455 5.35845C18.2315 6.47545 7.26249-2.40155 6.16449-14.4526C6.16449-14.4526 2.72649-52.1786 2.72649-52.1786C1.67749-63.6846 10.0045-73.9486 21.5635-75.8286C21.5645-75.8286 21.5655-75.8286 21.5675-75.8296C23.8685-76.1996 26.1015-74.9036 26.8485-72.7676C27.5985-70.6346 29.4815-65.6356 29.8485-64.6626C30.1755-64.2316 30.3845-63.7126 30.4335-63.1496C30.4715-62.7196 30.4125-62.2866 30.2605-61.8806C30.1785-61.6606 30.0815-61.4676 29.9735-61.2976C26.0735-53.6236 25.3775-43.6486 26.1415-35.2686C26.7125-28.9976 28.5395-24.4226 31.5065-21.1846C34.9465-17.4316 39.8575-15.5346 45.7015-14.6516C49.2355-14.1176 53.0965-13.9596 57.2015-14.0476C57.2015-19.7316 57.2005-26.4126 57.1975-30.8366C57.1975-33.1556 56.4535-35.3896 55.1115-37.0986C54.4875-37.8996 54.1065-38.9626 54.1065-40.1276L54.1065-49.1356C54.1065-51.6216 55.8365-53.6396 57.9675-53.6396L73.0815-53.6396C75.2125-53.6396 76.9425-51.6216 76.9425-49.1356L76.9425-40.1276C76.9425-38.9626 76.5625-37.8996 75.9345-37.1026C74.5915-35.3916 73.8465-33.1566 73.8465-30.8366L73.8465-13.9996ZM100.578-61.6626L100.584-61.6486L100.576-61.6656L100.578-61.6626ZM100.564-61.6906L100.57-61.6776L100.564-61.6926L100.564-61.6906ZM100.551-61.7196L100.556-61.7086L100.551-61.7196L100.551-61.7196Z"/>
  </g>
  <g id="Light-L" transform="matrix(1 0 0 1 1087.62 1556)">
   <path class="monochrome-0 multicolor-0:tintColor hierarchical-0:primary SFSymbolsPreviewWireframe" d="M73.8465-13.9996C91.0595-13.5296 104.723-17.0716 106.36-35.1436C107.117-43.5056 104.437-53.5966 100.771-61.2616C100.588-61.5286 100.426-61.8626 100.332-62.2856C100.25-62.6556 100.241-63.0376 100.305-63.4106C100.364-63.7506 100.48-64.0696 100.645-64.3586C100.927-65.0446 103.263-70.7196 104.169-72.9746C104.984-75.0026 107.145-76.2006 109.362-75.8536C109.364-75.8536 109.366-75.8526 109.368-75.8526C120.968-74.0116 129.341-63.7326 128.296-52.2006C128.296-52.2006 124.88-14.4716 124.88-14.4716C123.788-2.41955 112.823 6.46445 100.409 5.35545C100.409 5.35545 80.5435 1.54745 70.7465 0.672447C67.1975 0.355447 63.6275 0.356447 60.0785 0.676447C50.3335 1.55345 30.6455 5.35845 30.6455 5.35845C18.2315 6.47545 7.26249-2.40155 6.16449-14.4526C6.16449-14.4526 2.72649-52.1786 2.72649-52.1786C1.67749-63.6846 10.0045-73.9486 21.5635-75.8286C21.5645-75.8286 21.5655-75.8286 21.5675-75.8296C23.8685-76.1996 26.1015-74.9036 26.8485-72.7676C27.5985-70.6346 29.4815-65.6356 29.8485-64.6626C30.1755-64.2316 30.3845-63.7126 30.4335-63.1496C30.4715-62.7196 30.4125-62.2866 30.2605-61.8806C30.1785-61.6606 30.0815-61.4676 29.9735-61.2976C26.0735-53.6236 25.3775-43.6486 26.1415-35.2686C26.7125-28.9976 28.5395-24.4226 31.5065-21.1846C34.9465-17.4316 39.8575-15.5346 45.7015-14.6516C49.2355-14.1176 53.0965-13.9596 57.2015-14.0476C57.2015-19.7316 57.2005-26.4126 57.1975-30.8366C57.1975-33.1556 56.4535-35.3896 55.1115-37.0986C54.4875-37.8996 54.1065-38.9626 54.1065-40.1276L54.1065-49.1356C54.1065-51.6216 55.8365-53.6396 57.9675-53.6396L73.0815-53.6396C75.2125-53.6396 76.9425-51.6216 76.9425-49.1356L76.9425-40.1276C76.9425-38.9626 76.5625-37.8996 75.9345-37.1026C74.5915-35.3916 73.8465-33.1566 73.8465-30.8366L73.8465-13.9996ZM100.578-61.6626L100.584-61.6486L100.576-61.6656L100.578-61.6626ZM100.564-61.6906L100.57-61.6776L100.564-61.6926L100.564-61.6906ZM100.551-61.7196L100.556-61.7086L100.551-61.7196L100.551-61.7196Z"/>
  </g>
  <g id="Thin-L" transform="matrix(1 0 0 1 790.911 1556)">
   <path class="monochrome-0 multicolor-0:tintColor hierarchical-0:primary SFSymbolsPreviewWireframe" d="M73.8465-13.9996C91.0595-13.5296 104.723-17.0716 106.36-35.1436C107.117-43.5056 104.437-53.5966 100.771-61.2616C100.588-61.5286 100.426-61.8626 100.332-62.2856C100.25-62.6556 100.241-63.0376 100.305-63.4106C100.364-63.7506 100.48-64.0696 100.645-64.3586C100.927-65.0446 103.263-70.7196 104.169-72.9746C104.984-75.0026 107.145-76.2006 109.362-75.8536C109.364-75.8536 109.366-75.8526 109.368-75.8526C120.968-74.0116 129.341-63.7326 128.296-52.2006C128.296-52.2006 124.88-14.4716 124.88-14.4716C123.788-2.41955 112.823 6.46445 100.409 5.35545C100.409 5.35545 80.5435 1.54745 70.7465 0.672447C67.1975 0.355447 63.6275 0.356447 60.0785 0.676447C50.3335 1.55345 30.6455 5.35845 30.6455 5.35845C18.2315 6.47545 7.26249-2.40155 6.16449-14.4526C6.16449-14.4526 2.72649-52.1786 2.72649-52.1786C1.67749-63.6846 10.0045-73.9486 21.5635-75.8286C21.5645-75.8286 21.5655-75.8286 21.5675-75.8296C23.8685-76.1996 26.1015-74.9036 26.8485-72.7676C27.5985-70.6346 29.4815-65.6356 29.8485-64.6626C30.1755-64.2316 30.3845-63.7126 30.4335-63.1496C30.4715-62.7196 30.4125-62.2866 30.2605-61.8806C30.1785-61.6606 30.0815-61.4676 29.9735-61.2976C26.0735-53.6236 25.3775-43.6486 26.1415-35.2686C26.7125-28.9976 28.5395-24.4226 31.5065-21.1846C34.9465-17.4316 39.8575-15.5346 45.7015-14.6516C49.2355-14.1176 53.0965-13.9596 57.2015-14.0476C57.2015-19.7316 57.2005-26.4126 57.1975-30.8366C57.1975-33.1556 56.4535-35.3896 55.1115-37.0986C54.4875-37.8996 54.1065-38.9626 54.1065-40.1276L54.1065-49.1356C54.1065-51.6216 55.8365-53.6396 57.9675-53.6396L73.0815-53.6396C75.2125-53.6396 76.9425-51.6216 76.9425-49.1356L76.9425-40.1276C76.9425-38.9626 76.5625-37.8996 75.9345-37.1026C74.5915-35.3916 73.8465-33.1566 73.8465-30.8366L73.8465-13.9996ZM100.578-61.6626L100.584-61.6486L100.576-61.6656L100.578-61.6626ZM100.564-61.6906L100.57-61.6776L100.564-61.6926L100.564-61.6906ZM100.551-61.7196L100.556-61.7086L100.551-61.7196L100.551-61.7196Z"/>
  </g>
  <g id="Ultralight-L" transform="matrix(1 0 0 1 494.2 1556)">
   <path class="monochrome-0 multicolor-0:tintColor hierarchical-0:primary SFSymbolsPreviewWireframe" d="M73.8465-13.9996C91.0595-13.5296 104.723-17.0716 106.36-35.1436C107.117-43.5056 104.437-53.5966 100.771-61.2616C100.588-61.5286 100.426-61.8626 100.332-62.2856C100.25-62.6556 100.241-63.0376 100.305-63.4106C100.364-63.7506 100.48-64.0696 100.645-64.3586C100.927-65.0446 103.263-70.7196 104.169-72.9746C104.984-75.0026 107.145-76.2006 109.362-75.8536C109.364-75.8536 109.366-75.8526 109.368-75.8526C120.968-74.0116 129.341-63.7326 128.296-52.2006C128.296-52.2006 124.88-14.4716 124.88-14.4716C123.788-2.41955 112.823 6.46445 100.409 5.35545C100.409 5.35545 80.5435 1.54745 70.7465 0.672447C67.1975 0.355447 63.6275 0.356447 60.0785 0.676447C50.3335 1.55345 30.6455 5.35845 30.6455 5.35845C18.2315 6.47545 7.26249-2.40155 6.16449-14.4526C6.16449-14.4526 2.72649-52.1786 2.72649-52.1786C1.67749-63.6846 10.0045-73.9486 21.5635-75.8286C21.5645-75.8286 21.5655-75.8286 21.5675-75.8296C23.8685-76.1996 26.1015-74.9036 26.8485-72.7676C27.5985-70.6346 29.4815-65.6356 29.8485-64.6626C30.1755-64.2316 30.3845-63.7126 30.4335-63.1496C30.4715-62.7196 30.4125-62.2866 30.2605-61.8806C30.1785-61.6606 30.0815-61.4676 29.9735-61.2976C26.0735-53.6236 25.3775-43.6486 26.1415-35.2686C26.7125-28.9976 28.5395-24.4226 31.5065-21.1846C34.9465-17.4316 39.8575-15.5346 45.7015-14.6516C49.2355-14.1176 53.0965-13.9596 57.2015-14.0476C57.2015-19.7316 57.2005-26.4126 57.1975-30.8366C57.1975-33.1556 56.4535-35.3896 55.1115-37.0986C54.4875-37.8996 54.1065-38.9626 54.1065-40.1276L54.1065-49.1356C54.1065-51.6216 55.8365-53.6396 57.9675-53.6396L73.0815-53.6396C75.2125-53.6396 76.9425-51.6216 76.9425-49.1356L76.9425-40.1276C76.9425-38.9626 76.5625-37.8996 75.9345-37.1026C74.5915-35.3916 73.8465-33.1566 73.8465-30.8366L73.8465-13.9996ZM100.578-61.6626L100.584-61.6486L100.576-61.6656L100.578-61.6626ZM100.564-61.6906L100.57-61.6776L100.564-61.6926L100.564-61.6906ZM100.551-61.7196L100.556-61.7086L100.551-61.7196L100.551-61.7196Z"/>
  </g>
  <g id="Black-M" transform="matrix(1 0 0 1 2882.02 1126)">
   <path class="monochrome-0 multicolor-0:tintColor hierarchical-0:primary SFSymbolsPreviewWireframe" d="M57.8383-18.7718C71.1823-18.4088 81.7743-21.1538 83.0433-35.1628C83.6303-41.6448 81.5523-49.4678 78.7113-55.4098C78.5683-55.6168 78.4433-55.8758 78.3703-56.2028C78.3063-56.4898 78.2993-56.7858 78.3493-57.0758C78.3953-57.3388 78.4853-57.5868 78.6133-57.8108C78.8323-58.3428 80.6433-62.7408 81.3453-64.4888C81.9763-66.0618 83.6513-66.9898 85.3703-66.7208C85.3723-66.7208 85.3733-66.7208 85.3753-66.7208C94.3673-65.2938 100.858-57.3248 100.048-48.3848C100.048-48.3848 97.3993-19.1388 97.3993-19.1388C96.5533-9.79577 88.0533-2.90877 78.4303-3.76877C78.4303-3.76877 63.0303-6.71977 55.4353-7.39877C52.6843-7.64477 49.9173-7.64377 47.1663-7.39577C39.6123-6.71577 24.3493-3.76577 24.3493-3.76577C14.7263-2.89977 6.22326-9.78177 5.37126-19.1238C5.37126-19.1238 2.70626-48.3688 2.70626-48.3688C1.89426-57.2878 8.34926-65.2448 17.3093-66.7018C17.3103-66.7018 17.3113-66.7018 17.3123-66.7018C19.0963-66.9898 20.8273-65.9848 21.4063-64.3288C21.9873-62.6758 23.4473-58.8008 23.7323-58.0458C23.9853-57.7118 24.1473-57.3088 24.1853-56.8738C24.2143-56.5398 24.1683-56.2038 24.0513-55.8888C23.9883-55.7188 23.9123-55.5688 23.8283-55.4368C20.8053-49.4888 20.2663-41.7558 20.8583-35.2598C21.3013-30.3988 22.7173-26.8518 25.0173-24.3418C27.6833-21.4328 31.4903-19.9618 36.0203-19.2778C38.7603-18.8638 41.7533-18.7418 44.9353-18.8098C44.9353-23.2158 44.9343-28.3948 44.9323-31.8248C44.9323-33.6218 44.3553-35.3538 43.3153-36.6788C42.8313-37.2988 42.5363-38.1228 42.5363-39.0268L42.5363-46.0098C42.5363-47.9368 43.8773-49.5008 45.5293-49.5008L57.2463-49.5008C58.8973-49.5008 60.2383-47.9368 60.2383-46.0098L60.2383-39.0268C60.2383-38.1228 59.9433-37.2988 59.4573-36.6818C58.4163-35.3558 57.8383-33.6228 57.8383-31.8248L57.8383-18.7718ZM78.5603-55.7208L78.5663-55.7098L78.5603-55.7228L78.5603-55.7208ZM78.5503-55.7418L78.5553-55.7318L78.5503-55.7438L78.5503-55.7418ZM78.5403-55.7638L78.5443-55.7558L78.5403-55.7648L78.5403-55.7638Z"/>
  </g>
  <g id="Heavy-M" transform="matrix(1 0 0 1 2585.31 1126)">
   <path class="monochrome-0 multicolor-0:tintColor hierarchical-0:primary SFSymbolsPreviewWireframe" d="M57.8383-18.7718C71.1823-18.4088 81.7743-21.1538 83.0433-35.1628C83.6303-41.6448 81.5523-49.4678 78.7113-55.4098C78.5683-55.6168 78.4433-55.8758 78.3703-56.2028C78.3063-56.4898 78.2993-56.7858 78.3493-57.0758C78.3953-57.3388 78.4853-57.5868 78.6133-57.8108C78.8323-58.3428 80.6433-62.7408 81.3453-64.4888C81.9763-66.0618 83.6513-66.9898 85.3703-66.7208C85.3723-66.7208 85.3733-66.7208 85.3753-66.7208C94.3673-65.2938 100.858-57.3248 100.048-48.3848C100.048-48.3848 97.3993-19.1388 97.3993-19.1388C96.5533-9.79577 88.0533-2.90877 78.4303-3.76877C78.4303-3.76877 63.0303-6.71977 55.4353-7.39877C52.6843-7.64477 49.9173-7.64377 47.1663-7.39577C39.6123-6.71577 24.3493-3.76577 24.3493-3.76577C14.7263-2.89977 6.22326-9.78177 5.37126-19.1238C5.37126-19.1238 2.70626-48.3688 2.70626-48.3688C1.89426-57.2878 8.34926-65.2448 17.3093-66.7018C17.3103-66.7018 17.3113-66.7018 17.3123-66.7018C19.0963-66.9898 20.8273-65.9848 21.4063-64.3288C21.9873-62.6758 23.4473-58.8008 23.7323-58.0458C23.9853-57.7118 24.1473-57.3088 24.1853-56.8738C24.2143-56.5398 24.1683-56.2038 24.0513-55.8888C23.9883-55.7188 23.9123-55.5688 23.8283-55.4368C20.8053-49.4888 20.2663-41.7558 20.8583-35.2598C21.3013-30.3988 22.7173-26.8518 25.0173-24.3418C27.6833-21.4328 31.4903-19.9618 36.0203-19.2778C38.7603-18.8638 41.7533-18.7418 44.9353-18.8098C44.9353-23.2158 44.9343-28.3948 44.9323-31.8248C44.9323-33.6218 44.3553-35.3538 43.3153-36.6788C42.8313-37.2988 42.5363-38.1228 42.5363-39.0268L42.5363-46.0098C42.5363-47.9368 43.8773-49.5008 45.5293-49.5008L57.2463-49.5008C58.8973-49.5008 60.2383-47.9368 60.2383-46.0098L60.2383-39.0268C60.2383-38.1228 59.9433-37.2988 59.4573-36.6818C58.4163-35.3558 57.8383-33.6228 57.8383-31.8248L57.8383-18.7718ZM78.5603-55.7208L78.5663-55.7098L78.5603-55.7228L78.5603-55.7208ZM78.5503-55.7418L78.5553-55.7318L78.5503-55.7438L78.5503-55.7418ZM78.5403-55.7638L78.5443-55.7558L78.5403-55.7648L78.5403-55.7638Z"/>
  </g>
  <g id="Bold-M" transform="matrix(1 0 0 1 2288.6 1126)">
   <path class="monochrome-0 multicolor-0:tintColor hierarchical-0:primary SFSymbolsPreviewWireframe" d="M57.8383-18.7718C71.1823-18.4088 81.7743-21.1538 83.0433-35.1628C83.6303-41.6448 81.5523-49.4678 78.7113-55.4098C78.5683-55.6168 78.4433-55.8758 78.3703-56.2028C78.3063-56.4898 78.2993-56.7858 78.3493-57.0758C78.3953-57.3388 78.4853-57.5868 78.6133-57.8108C78.8323-58.3428 80.6433-62.7408 81.3453-64.4888C81.9763-66.0618 83.6513-66.9898 85.3703-66.7208C85.3723-66.7208 85.3733-66.7208 85.3753-66.7208C94.3673-65.2938 100.858-57.3248 100.048-48.3848C100.048-48.3848 97.3993-19.1388 97.3993-19.1388C96.5533-9.79577 88.0533-2.90877 78.4303-3.76877C78.4303-3.76877 63.0303-6.71977 55.4353-7.39877C52.6843-7.64477 49.9173-7.64377 47.1663-7.39577C39.6123-6.71577 24.3493-3.76577 24.3493-3.76577C14.7263-2.89977 6.22326-9.78177 5.37126-19.1238C5.37126-19.1238 2.70626-48.3688 2.70626-48.3688C1.89426-57.2878 8.34926-65.2448 17.3093-66.7018C17.3103-66.7018 17.3113-66.7018 17.3123-66.7018C19.0963-66.9898 20.8273-65.9848 21.4063-64.3288C21.9873-62.6758 23.4473-58.8008 23.7323-58.0458C23.9853-57.7118 24.1473-57.3088 24.1853-56.8738C24.2143-56.5398 24.1683-56.2038 24.0513-55.8888C23.9883-55.7188 23.9123-55.5688 23.8283-55.4368C20.8053-49.4888 20.2663-41.7558 20.8583-35.2598C21.3013-30.3988 22.7173-26.8518 25.0173-24.3418C27.6833-21.4328 31.4903-19.9618 36.0203-19.2778C38.7603-18.8638 41.7533-18.7418 44.9353-18.8098C44.9353-23.2158 44.9343-28.3948 44.9323-31.8248C44.9323-33.6218 44.3553-35.3538 43.3153-36.6788C42.8313-37.2988 42.5363-38.1228 42.5363-39.0268L42.5363-46.0098C42.5363-47.9368 43.8773-49.5008 45.5293-49.5008L57.2463-49.5008C58.8973-49.5008 60.2383-47.9368 60.2383-46.0098L60.2383-39.0268C60.2383-38.1228 59.9433-37.2988 59.4573-36.6818C58.4163-35.3558 57.8383-33.6228 57.8383-31.8248L57.8383-18.7718ZM78.5603-55.7208L78.5663-55.7098L78.5603-55.7228L78.5603-55.7208ZM78.5503-55.7418L78.5553-55.7318L78.5503-55.7438L78.5503-55.7418ZM78.5403-55.7638L78.5443-55.7558L78.5403-55.7648L78.5403-55.7638Z"/>
  </g>
  <g id="Semibold-M" transform="matrix(1 0 0 1 1991.89 1126)">
   <path class="monochrome-0 multicolor-0:tintColor hierarchical-0:primary SFSymbolsPreviewWireframe" d="M57.8383-18.7718C71.1823-18.4088 81.7743-21.1538 83.0433-35.1628C83.6303-41.6448 81.5523-49.4678 78.7113-55.4098C78.5683-55.6168 78.4433-55.8758 78.3703-56.2028C78.3063-56.4898 78.2993-56.7858 78.3493-57.0758C78.3953-57.3388 78.4853-57.5868 78.6133-57.8108C78.8323-58.3428 80.6433-62.7408 81.3453-64.4888C81.9763-66.0618 83.6513-66.9898 85.3703-66.7208C85.3723-66.7208 85.3733-66.7208 85.3753-66.7208C94.3673-65.2938 100.858-57.3248 100.048-48.3848C100.048-48.3848 97.3993-19.1388 97.3993-19.1388C96.5533-9.79577 88.0533-2.90877 78.4303-3.76877C78.4303-3.76877 63.0303-6.71977 55.4353-7.39877C52.6843-7.64477 49.9173-7.64377 47.1663-7.39577C39.6123-6.71577 24.3493-3.76577 24.3493-3.76577C14.7263-2.89977 6.22326-9.78177 5.37126-19.1238C5.37126-19.1238 2.70626-48.3688 2.70626-48.3688C1.89426-57.2878 8.34926-65.2448 17.3093-66.7018C17.3103-66.7018 17.3113-66.7018 17.3123-66.7018C19.0963-66.9898 20.8273-65.9848 21.4063-64.3288C21.9873-62.6758 23.4473-58.8008 23.7323-58.0458C23.9853-57.7118 24.1473-57.3088 24.1853-56.8738C24.2143-56.5398 24.1683-56.2038 24.0513-55.8888C23.9883-55.7188 23.9123-55.5688 23.8283-55.4368C20.8053-49.4888 20.2663-41.7558 20.8583-35.2598C21.3013-30.3988 22.7173-26.8518 25.0173-24.3418C27.6833-21.4328 31.4903-19.9618 36.0203-19.2778C38.7603-18.8638 41.7533-18.7418 44.9353-18.8098C44.9353-23.2158 44.9343-28.3948 44.9323-31.8248C44.9323-33.6218 44.3553-35.3538 43.3153-36.6788C42.8313-37.2988 42.5363-38.1228 42.5363-39.0268L42.5363-46.0098C42.5363-47.9368 43.8773-49.5008 45.5293-49.5008L57.2463-49.5008C58.8973-49.5008 60.2383-47.9368 60.2383-46.0098L60.2383-39.0268C60.2383-38.1228 59.9433-37.2988 59.4573-36.6818C58.4163-35.3558 57.8383-33.6228 57.8383-31.8248L57.8383-18.7718ZM78.5603-55.7208L78.5663-55.7098L78.5603-55.7228L78.5603-55.7208ZM78.5503-55.7418L78.5553-55.7318L78.5503-55.7438L78.5503-55.7418ZM78.5403-55.7638L78.5443-55.7558L78.5403-55.7648L78.5403-55.7638Z"/>
  </g>
  <g id="Medium-M" transform="matrix(1 0 0 1 1695.18 1126)">
   <path class="monochrome-0 multicolor-0:tintColor hierarchical-0:primary SFSymbolsPreviewWireframe" d="M57.8383-18.7718C71.1823-18.4088 81.7743-21.1538 83.0433-35.1628C83.6303-41.6448 81.5523-49.4678 78.7113-55.4098C78.5683-55.6168 78.4433-55.8758 78.3703-56.2028C78.3063-56.4898 78.2993-56.7858 78.3493-57.0758C78.3953-57.3388 78.4853-57.5868 78.6133-57.8108C78.8323-58.3428 80.6433-62.7408 81.3453-64.4888C81.9763-66.0618 83.6513-66.9898 85.3703-66.7208C85.3723-66.7208 85.3733-66.7208 85.3753-66.7208C94.3673-65.2938 100.858-57.3248 100.048-48.3848C100.048-48.3848 97.3993-19.1388 97.3993-19.1388C96.5533-9.79577 88.0533-2.90877 78.4303-3.76877C78.4303-3.76877 63.0303-6.71977 55.4353-7.39877C52.6843-7.64477 49.9173-7.64377 47.1663-7.39577C39.6123-6.71577 24.3493-3.76577 24.3493-3.76577C14.7263-2.89977 6.22326-9.78177 5.37126-19.1238C5.37126-19.1238 2.70626-48.3688 2.70626-48.3688C1.89426-57.2878 8.34926-65.2448 17.3093-66.7018C17.3103-66.7018 17.3113-66.7018 17.3123-66.7018C19.0963-66.9898 20.8273-65.9848 21.4063-64.3288C21.9873-62.6758 23.4473-58.8008 23.7323-58.0458C23.9853-57.7118 24.1473-57.3088 24.1853-56.8738C24.2143-56.5398 24.1683-56.2038 24.0513-55.8888C23.9883-55.7188 23.9123-55.5688 23.8283-55.4368C20.8053-49.4888 20.2663-41.7558 20.8583-35.2598C21.3013-30.3988 22.7173-26.8518 25.0173-24.3418C27.6833-21.4328 31.4903-19.9618 36.0203-19.2778C38.7603-18.8638 41.7533-18.7418 44.9353-18.8098C44.9353-23.2158 44.9343-28.3948 44.9323-31.8248C44.9323-33.6218 44.3553-35.3538 43.3153-36.6788C42.8313-37.2988 42.5363-38.1228 42.5363-39.0268L42.5363-46.0098C42.5363-47.9368 43.8773-49.5008 45.5293-49.5008L57.2463-49.5008C58.8973-49.5008 60.2383-47.9368 60.2383-46.0098L60.2383-39.0268C60.2383-38.1228 59.9433-37.2988 59.4573-36.6818C58.4163-35.3558 57.8383-33.6228 57.8383-31.8248L57.8383-18.7718ZM78.5603-55.7208L78.5663-55.7098L78.5603-55.7228L78.5603-55.7208ZM78.5503-55.7418L78.5553-55.7318L78.5503-55.7438L78.5503-55.7418ZM78.5403-55.7638L78.5443-55.7558L78.5403-55.7648L78.5403-55.7638Z"/>
  </g>
  <g id="Regular-M" transform="matrix(1 0 0 1 1398.47 1126)">
   <path class="monochrome-0 multicolor-0:tintColor hierarchical-0:primary SFSymbolsPreviewWireframe" d="M57.8383-18.7718C71.1823-18.4088 81.7743-21.1538 83.0433-35.1628C83.6303-41.6448 81.5523-49.4678 78.7113-55.4098C78.5683-55.6168 78.4433-55.8758 78.3703-56.2028C78.3063-56.4898 78.2993-56.7858 78.3493-57.0758C78.3953-57.3388 78.4853-57.5868 78.6133-57.8108C78.8323-58.3428 80.6433-62.7408 81.3453-64.4888C81.9763-66.0618 83.6513-66.9898 85.3703-66.7208C85.3723-66.7208 85.3733-66.7208 85.3753-66.7208C94.3673-65.2938 100.858-57.3248 100.048-48.3848C100.048-48.3848 97.3993-19.1388 97.3993-19.1388C96.5533-9.79577 88.0533-2.90877 78.4303-3.76877C78.4303-3.76877 63.0303-6.71977 55.4353-7.39877C52.6843-7.64477 49.9173-7.64377 47.1663-7.39577C39.6123-6.71577 24.3493-3.76577 24.3493-3.76577C14.7263-2.89977 6.22326-9.78177 5.37126-19.1238C5.37126-19.1238 2.70626-48.3688 2.70626-48.3688C1.89426-57.2878 8.34926-65.2448 17.3093-66.7018C17.3103-66.7018 17.3113-66.7018 17.3123-66.7018C19.0963-66.9898 20.8273-65.9848 21.4063-64.3288C21.9873-62.6758 23.4473-58.8008 23.7323-58.0458C23.9853-57.7118 24.1473-57.3088 24.1853-56.8738C24.2143-56.5398 24.1683-56.2038 24.0513-55.8888C23.9883-55.7188 23.9123-55.5688 23.8283-55.4368C20.8053-49.4888 20.2663-41.7558 20.8583-35.2598C21.3013-30.3988 22.7173-26.8518 25.0173-24.3418C27.6833-21.4328 31.4903-19.9618 36.0203-19.2778C38.7603-18.8638 41.7533-18.7418 44.9353-18.8098C44.9353-23.2158 44.9343-28.3948 44.9323-31.8248C44.9323-33.6218 44.3553-35.3538 43.3153-36.6788C42.8313-37.2988 42.5363-38.1228 42.5363-39.0268L42.5363-46.0098C42.5363-47.9368 43.8773-49.5008 45.5293-49.5008L57.2463-49.5008C58.8973-49.5008 60.2383-47.9368 60.2383-46.0098L60.2383-39.0268C60.2383-38.1228 59.9433-37.2988 59.4573-36.6818C58.4163-35.3558 57.8383-33.6228 57.8383-31.8248L57.8383-18.7718ZM78.5603-55.7208L78.5663-55.7098L78.5603-55.7228L78.5603-55.7208ZM78.5503-55.7418L78.5553-55.7318L78.5503-55.7438L78.5503-55.7418ZM78.5403-55.7638L78.5443-55.7558L78.5403-55.7648L78.5403-55.7638Z"/>
  </g>
  <g id="Light-M" transform="matrix(1 0 0 1 1101.76 1126)">
   <path class="monochrome-0 multicolor-0:tintColor hierarchical-0:primary SFSymbolsPreviewWireframe" d="M57.8383-18.7718C71.1823-18.4088 81.7743-21.1538 83.0433-35.1628C83.6303-41.6448 81.5523-49.4678 78.7113-55.4098C78.5683-55.6168 78.4433-55.8758 78.3703-56.2028C78.3063-56.4898 78.2993-56.7858 78.3493-57.0758C78.3953-57.3388 78.4853-57.5868 78.6133-57.8108C78.8323-58.3428 80.6433-62.7408 81.3453-64.4888C81.9763-66.0618 83.6513-66.9898 85.3703-66.7208C85.3723-66.7208 85.3733-66.7208 85.3753-66.7208C94.3673-65.2938 100.858-57.3248 100.048-48.3848C100.048-48.3848 97.3993-19.1388 97.3993-19.1388C96.5533-9.79577 88.0533-2.90877 78.4303-3.76877C78.4303-3.76877 63.0303-6.71977 55.4353-7.39877C52.6843-7.64477 49.9173-7.64377 47.1663-7.39577C39.6123-6.71577 24.3493-3.76577 24.3493-3.76577C14.7263-2.89977 6.22326-9.78177 5.37126-19.1238C5.37126-19.1238 2.70626-48.3688 2.70626-48.3688C1.89426-57.2878 8.34926-65.2448 17.3093-66.7018C17.3103-66.7018 17.3113-66.7018 17.3123-66.7018C19.0963-66.9898 20.8273-65.9848 21.4063-64.3288C21.9873-62.6758 23.4473-58.8008 23.7323-58.0458C23.9853-57.7118 24.1473-57.3088 24.1853-56.8738C24.2143-56.5398 24.1683-56.2038 24.0513-55.8888C23.9883-55.7188 23.9123-55.5688 23.8283-55.4368C20.8053-49.4888 20.2663-41.7558 20.8583-35.2598C21.3013-30.3988 22.7173-26.8518 25.0173-24.3418C27.6833-21.4328 31.4903-19.9618 36.0203-19.2778C38.7603-18.8638 41.7533-18.7418 44.9353-18.8098C44.9353-23.2158 44.9343-28.3948 44.9323-31.8248C44.9323-33.6218 44.3553-35.3538 43.3153-36.6788C42.8313-37.2988 42.5363-38.1228 42.5363-39.0268L42.5363-46.0098C42.5363-47.9368 43.8773-49.5008 45.5293-49.5008L57.2463-49.5008C58.8973-49.5008 60.2383-47.9368 60.2383-46.0098L60.2383-39.0268C60.2383-38.1228 59.9433-37.2988 59.4573-36.6818C58.4163-35.3558 57.8383-33.6228 57.8383-31.8248L57.8383-18.7718ZM78.5603-55.7208L78.5663-55.7098L78.5603-55.7228L78.5603-55.7208ZM78.5503-55.7418L78.5553-55.7318L78.5503-55.7438L78.5503-55.7418ZM78.5403-55.7638L78.5443-55.7558L78.5403-55.7648L78.5403-55.7638Z"/>
  </g>
  <g id="Thin-M" transform="matrix(1 0 0 1 805.045 1126)">
   <path class="monochrome-0 multicolor-0:tintColor hierarchical-0:primary SFSymbolsPreviewWireframe" d="M57.8383-18.7718C71.1823-18.4088 81.7743-21.1538 83.0433-35.1628C83.6303-41.6448 81.5523-49.4678 78.7113-55.4098C78.5683-55.6168 78.4433-55.8758 78.3703-56.2028C78.3063-56.4898 78.2993-56.7858 78.3493-57.0758C78.3953-57.3388 78.4853-57.5868 78.6133-57.8108C78.8323-58.3428 80.6433-62.7408 81.3453-64.4888C81.9763-66.0618 83.6513-66.9898 85.3703-66.7208C85.3723-66.7208 85.3733-66.7208 85.3753-66.7208C94.3673-65.2938 100.858-57.3248 100.048-48.3848C100.048-48.3848 97.3993-19.1388 97.3993-19.1388C96.5533-9.79577 88.0533-2.90877 78.4303-3.76877C78.4303-3.76877 63.0303-6.71977 55.4353-7.39877C52.6843-7.64477 49.9173-7.64377 47.1663-7.39577C39.6123-6.71577 24.3493-3.76577 24.3493-3.76577C14.7263-2.89977 6.22326-9.78177 5.37126-19.1238C5.37126-19.1238 2.70626-48.3688 2.70626-48.3688C1.89426-57.2878 8.34926-65.2448 17.3093-66.7018C17.3103-66.7018 17.3113-66.7018 17.3123-66.7018C19.0963-66.9898 20.8273-65.9848 21.4063-64.3288C21.9873-62.6758 23.4473-58.8008 23.7323-58.0458C23.9853-57.7118 24.1473-57.3088 24.1853-56.8738C24.2143-56.5398 24.1683-56.2038 24.0513-55.8888C23.9883-55.7188 23.9123-55.5688 23.8283-55.4368C20.8053-49.4888 20.2663-41.7558 20.8583-35.2598C21.3013-30.3988 22.7173-26.8518 25.0173-24.3418C27.6833-21.4328 31.4903-19.9618 36.0203-19.2778C38.7603-18.8638 41.7533-18.7418 44.9353-18.8098C44.9353-23.2158 44.9343-28.3948 44.9323-31.8248C44.9323-33.6218 44.3553-35.3538 43.3153-36.6788C42.8313-37.2988 42.5363-38.1228 42.5363-39.0268L42.5363-46.0098C42.5363-47.9368 43.8773-49.5008 45.5293-49.5008L57.2463-49.5008C58.8973-49.5008 60.2383-47.9368 60.2383-46.0098L60.2383-39.0268C60.2383-38.1228 59.9433-37.2988 59.4573-36.6818C58.4163-35.3558 57.8383-33.6228 57.8383-31.8248L57.8383-18.7718ZM78.5603-55.7208L78.5663-55.7098L78.5603-55.7228L78.5603-55.7208ZM78.5503-55.7418L78.5553-55.7318L78.5503-55.7438L78.5503-55.7418ZM78.5403-55.7638L78.5443-55.7558L78.5403-55.7648L78.5403-55.7638Z"/>
  </g>
  <g id="Ultralight-M" transform="matrix(1 0 0 1 508.334 1126)">
   <path class="monochrome-0 multicolor-0:tintColor hierarchical-0:primary SFSymbolsPreviewWireframe" d="M57.8383-18.7718C71.1823-18.4088 81.7743-21.1538 83.0433-35.1628C83.6303-41.6448 81.5523-49.4678 78.7113-55.4098C78.5683-55.6168 78.4433-55.8758 78.3703-56.2028C78.3063-56.4898 78.2993-56.7858 78.3493-57.0758C78.3953-57.3388 78.4853-57.5868 78.6133-57.8108C78.8323-58.3428 80.6433-62.7408 81.3453-64.4888C81.9763-66.0618 83.6513-66.9898 85.3703-66.7208C85.3723-66.7208 85.3733-66.7208 85.3753-66.7208C94.3673-65.2938 100.858-57.3248 100.048-48.3848C100.048-48.3848 97.3993-19.1388 97.3993-19.1388C96.5533-9.79577 88.0533-2.90877 78.4303-3.76877C78.4303-3.76877 63.0303-6.71977 55.4353-7.39877C52.6843-7.64477 49.9173-7.64377 47.1663-7.39577C39.6123-6.71577 24.3493-3.76577 24.3493-3.76577C14.7263-2.89977 6.22326-9.78177 5.37126-19.1238C5.37126-19.1238 2.70626-48.3688 2.70626-48.3688C1.89426-57.2878 8.34926-65.2448 17.3093-66.7018C17.3103-66.7018 17.3113-66.7018 17.3123-66.7018C19.0963-66.9898 20.8273-65.9848 21.4063-64.3288C21.9873-62.6758 23.4473-58.8008 23.7323-58.0458C23.9853-57.7118 24.1473-57.3088 24.1853-56.8738C24.2143-56.5398 24.1683-56.2038 24.0513-55.8888C23.9883-55.7188 23.9123-55.5688 23.8283-55.4368C20.8053-49.4888 20.2663-41.7558 20.8583-35.2598C21.3013-30.3988 22.7173-26.8518 25.0173-24.3418C27.6833-21.4328 31.4903-19.9618 36.0203-19.2778C38.7603-18.8638 41.7533-18.7418 44.9353-18.8098C44.9353-23.2158 44.9343-28.3948 44.9323-31.8248C44.9323-33.6218 44.3553-35.3538 43.3153-36.6788C42.8313-37.2988 42.5363-38.1228 42.5363-39.0268L42.5363-46.0098C42.5363-47.9368 43.8773-49.5008 45.5293-49.5008L57.2463-49.5008C58.8973-49.5008 60.2383-47.9368 60.2383-46.0098L60.2383-39.0268C60.2383-38.1228 59.9433-37.2988 59.4573-36.6818C58.4163-35.3558 57.8383-33.6228 57.8383-31.8248L57.8383-18.7718ZM78.5603-55.7208L78.5663-55.7098L78.5603-55.7228L78.5603-55.7208ZM78.5503-55.7418L78.5553-55.7318L78.5503-55.7438L78.5503-55.7418ZM78.5403-55.7638L78.5443-55.7558L78.5403-55.7648L78.5403-55.7638Z"/>
  </g>
  <g id="Black-S" transform="matrix(1 0 0 1 2892.6 696)">
   <path class="monochrome-0 multicolor-0:tintColor hierarchical-0:primary SFSymbolsPreviewWireframe" d="M45.8593-22.3439C56.3073-22.0589 64.6013-24.2079 65.5943-35.1769C66.0543-40.2529 64.4273-46.3779 62.2023-51.0309C62.0913-51.1929 61.9933-51.3959 61.9363-51.6519C61.8863-51.8769 61.8803-52.1089 61.9193-52.3349C61.9553-52.5409 62.0263-52.7349 62.1253-52.9109C62.2973-53.3269 63.7153-56.7709 64.2653-58.1399C64.7593-59.3709 66.0713-60.0979 67.4173-59.8879C67.4183-59.8869 67.4193-59.8869 67.4213-59.8869C74.4613-58.7699 79.5433-52.5299 78.9093-45.5309C78.9093-45.5309 76.8353-22.6299 76.8353-22.6299C76.1733-15.3149 69.5183-9.92289 61.9833-10.5959C61.9833-10.5959 49.9243-12.9069 43.9783-13.4379C41.8233-13.6309 39.6573-13.6299 37.5033-13.4359C31.5883-12.9039 19.6373-10.5939 19.6373-10.5939C12.1033-9.91589 5.44435-15.3039 4.77835-22.6189C4.77835-22.6189 2.69135-45.5169 2.69135-45.5169C2.05535-52.5009 7.10935-58.7319 14.1243-59.8719C14.1253-59.8719 14.1263-59.8729 14.1273-59.8729C15.5243-60.0979 16.8793-59.3109 17.3333-58.0139C17.7883-56.7199 18.9313-53.6859 19.1543-53.0949C19.3523-52.8329 19.4793-52.5179 19.5093-52.1769C19.5313-51.9159 19.4963-51.6529 19.4043-51.4059C19.3543-51.2729 19.2953-51.1559 19.2293-51.0519C16.8623-46.3939 16.4403-40.3399 16.9043-35.2529C17.2503-31.4469 18.3593-28.6699 20.1603-26.7049C22.2483-24.4269 25.2293-23.2749 28.7763-22.7389C30.9213-22.4149 33.2653-22.3199 35.7563-22.3729C35.7563-25.8229 35.7553-29.8779 35.7543-32.5639C35.7543-33.9709 35.3023-35.3269 34.4873-36.3649C34.1093-36.8499 33.8783-37.4949 33.8783-38.2029L33.8783-43.6709C33.8783-45.1789 34.9283-46.4039 36.2213-46.4039L45.3953-46.4039C46.6883-46.4039 47.7383-45.1789 47.7383-43.6709L47.7383-38.2029C47.7383-37.4949 47.5083-36.8499 47.1273-36.3669C46.3123-35.3279 45.8593-33.9719 45.8593-32.5639L45.8593-22.3439ZM62.0853-51.2739L62.0893-51.2659L62.0843-51.2759L62.0853-51.2739ZM62.0773-51.2909L62.0803-51.2829L62.0763-51.2919L62.0773-51.2909ZM62.0693-51.3079L62.0723-51.3019L62.0693-51.3089L62.0693-51.3079Z"/>
  </g>
  <g id="Heavy-S" transform="matrix(1 0 0 1 2595.89 696)">
   <path class="monochrome-0 multicolor-0:tintColor hierarchical-0:primary SFSymbolsPreviewWireframe" d="M45.8593-22.3439C56.3073-22.0589 64.6013-24.2079 65.5943-35.1769C66.0543-40.2529 64.4273-46.3779 62.2023-51.0309C62.0913-51.1929 61.9933-51.3959 61.9363-51.6519C61.8863-51.8769 61.8803-52.1089 61.9193-52.3349C61.9553-52.5409 62.0263-52.7349 62.1253-52.9109C62.2973-53.3269 63.7153-56.7709 64.2653-58.1399C64.7593-59.3709 66.0713-60.0979 67.4173-59.8879C67.4183-59.8869 67.4193-59.8869 67.4213-59.8869C74.4613-58.7699 79.5433-52.5299 78.9093-45.5309C78.9093-45.5309 76.8353-22.6299 76.8353-22.6299C76.1733-15.3149 69.5183-9.92289 61.9833-10.5959C61.9833-10.5959 49.9243-12.9069 43.9783-13.4379C41.8233-13.6309 39.6573-13.6299 37.5033-13.4359C31.5883-12.9039 19.6373-10.5939 19.6373-10.5939C12.1033-9.91589 5.44435-15.3039 4.77835-22.6189C4.77835-22.6189 2.69135-45.5169 2.69135-45.5169C2.05535-52.5009 7.10935-58.7319 14.1243-59.8719C14.1253-59.8719 14.1263-59.8729 14.1273-59.8729C15.5243-60.0979 16.8793-59.3109 17.3333-58.0139C17.7883-56.7199 18.9313-53.6859 19.1543-53.0949C19.3523-52.8329 19.4793-52.5179 19.5093-52.1769C19.5313-51.9159 19.4963-51.6529 19.4043-51.4059C19.3543-51.2729 19.2953-51.1559 19.2293-51.0519C16.8623-46.3939 16.4403-40.3399 16.9043-35.2529C17.2503-31.4469 18.3593-28.6699 20.1603-26.7049C22.2483-24.4269 25.2293-23.2749 28.7763-22.7389C30.9213-22.4149 33.2653-22.3199 35.7563-22.3729C35.7563-25.8229 35.7553-29.8779 35.7543-32.5639C35.7543-33.9709 35.3023-35.3269 34.4873-36.3649C34.1093-36.8499 33.8783-37.4949 33.8783-38.2029L33.8783-43.6709C33.8783-45.1789 34.9283-46.4039 36.2213-46.4039L45.3953-46.4039C46.6883-46.4039 47.7383-45.1789 47.7383-43.6709L47.7383-38.2029C47.7383-37.4949 47.5083-36.8499 47.1273-36.3669C46.3123-35.3279 45.8593-33.9719 45.8593-32.5639L45.8593-22.3439ZM62.0853-51.2739L62.0893-51.2659L62.0843-51.2759L62.0853-51.2739ZM62.0773-51.2909L62.0803-51.2829L62.0763-51.2919L62.0773-51.2909ZM62.0693-51.3079L62.0723-51.3019L62.0693-51.3089L62.0693-51.3079Z"/>
  </g>
  <g id="Bold-S" transform="matrix(1 0 0 1 2299.18 696)">
   <path class="monochrome-0 multicolor-0:tintColor hierarchical-0:primary SFSymbolsPreviewWireframe" d="M45.8593-22.3439C56.3073-22.0589 64.6013-24.2079 65.5943-35.1769C66.0543-40.2529 64.4273-46.3779 62.2023-51.0309C62.0913-51.1929 61.9933-51.3959 61.9363-51.6519C61.8863-51.8769 61.8803-52.1089 61.9193-52.3349C61.9553-52.5409 62.0263-52.7349 62.1253-52.9109C62.2973-53.3269 63.7153-56.7709 64.2653-58.1399C64.7593-59.3709 66.0713-60.0979 67.4173-59.8879C67.4183-59.8869 67.4193-59.8869 67.4213-59.8869C74.4613-58.7699 79.5433-52.5299 78.9093-45.5309C78.9093-45.5309 76.8353-22.6299 76.8353-22.6299C76.1733-15.3149 69.5183-9.92289 61.9833-10.5959C61.9833-10.5959 49.9243-12.9069 43.9783-13.4379C41.8233-13.6309 39.6573-13.6299 37.5033-13.4359C31.5883-12.9039 19.6373-10.5939 19.6373-10.5939C12.1033-9.91589 5.44435-15.3039 4.77835-22.6189C4.77835-22.6189 2.69135-45.5169 2.69135-45.5169C2.05535-52.5009 7.10935-58.7319 14.1243-59.8719C14.1253-59.8719 14.1263-59.8729 14.1273-59.8729C15.5243-60.0979 16.8793-59.3109 17.3333-58.0139C17.7883-56.7199 18.9313-53.6859 19.1543-53.0949C19.3523-52.8329 19.4793-52.5179 19.5093-52.1769C19.5313-51.9159 19.4963-51.6529 19.4043-51.4059C19.3543-51.2729 19.2953-51.1559 19.2293-51.0519C16.8623-46.3939 16.4403-40.3399 16.9043-35.2529C17.2503-31.4469 18.3593-28.6699 20.1603-26.7049C22.2483-24.4269 25.2293-23.2749 28.7763-22.7389C30.9213-22.4149 33.2653-22.3199 35.7563-22.3729C35.7563-25.8229 35.7553-29.8779 35.7543-32.5639C35.7543-33.9709 35.3023-35.3269 34.4873-36.3649C34.1093-36.8499 33.8783-37.4949 33.8783-38.2029L33.8783-43.6709C33.8783-45.1789 34.9283-46.4039 36.2213-46.4039L45.3953-46.4039C46.6883-46.4039 47.7383-45.1789 47.7383-43.6709L47.7383-38.2029C47.7383-37.4949 47.5083-36.8499 47.1273-36.3669C46.3123-35.3279 45.8593-33.9719 45.8593-32.5639L45.8593-22.3439ZM62.0853-51.2739L62.0893-51.2659L62.0843-51.2759L62.0853-51.2739ZM62.0773-51.2909L62.0803-51.2829L62.0763-51.2919L62.0773-51.2909ZM62.0693-51.3079L62.0723-51.3019L62.0693-51.3089L62.0693-51.3079Z"/>
  </g>
  <g id="Semibold-S" transform="matrix(1 0 0 1 2002.47 696)">
   <path class="monochrome-0 multicolor-0:tintColor hierarchical-0:primary SFSymbolsPreviewWireframe" d="M45.8593-22.3439C56.3073-22.0589 64.6013-24.2079 65.5943-35.1769C66.0543-40.2529 64.4273-46.3779 62.2023-51.0309C62.0913-51.1929 61.9933-51.3959 61.9363-51.6519C61.8863-51.8769 61.8803-52.1089 61.9193-52.3349C61.9553-52.5409 62.0263-52.7349 62.1253-52.9109C62.2973-53.3269 63.7153-56.7709 64.2653-58.1399C64.7593-59.3709 66.0713-60.0979 67.4173-59.8879C67.4183-59.8869 67.4193-59.8869 67.4213-59.8869C74.4613-58.7699 79.5433-52.5299 78.9093-45.5309C78.9093-45.5309 76.8353-22.6299 76.8353-22.6299C76.1733-15.3149 69.5183-9.92289 61.9833-10.5959C61.9833-10.5959 49.9243-12.9069 43.9783-13.4379C41.8233-13.6309 39.6573-13.6299 37.5033-13.4359C31.5883-12.9039 19.6373-10.5939 19.6373-10.5939C12.1033-9.91589 5.44435-15.3039 4.77835-22.6189C4.77835-22.6189 2.69135-45.5169 2.69135-45.5169C2.05535-52.5009 7.10935-58.7319 14.1243-59.8719C14.1253-59.8719 14.1263-59.8729 14.1273-59.8729C15.5243-60.0979 16.8793-59.3109 17.3333-58.0139C17.7883-56.7199 18.9313-53.6859 19.1543-53.0949C19.3523-52.8329 19.4793-52.5179 19.5093-52.1769C19.5313-51.9159 19.4963-51.6529 19.4043-51.4059C19.3543-51.2729 19.2953-51.1559 19.2293-51.0519C16.8623-46.3939 16.4403-40.3399 16.9043-35.2529C17.2503-31.4469 18.3593-28.6699 20.1603-26.7049C22.2483-24.4269 25.2293-23.2749 28.7763-22.7389C30.9213-22.4149 33.2653-22.3199 35.7563-22.3729C35.7563-25.8229 35.7553-29.8779 35.7543-32.5639C35.7543-33.9709 35.3023-35.3269 34.4873-36.3649C34.1093-36.8499 33.8783-37.4949 33.8783-38.2029L33.8783-43.6709C33.8783-45.1789 34.9283-46.4039 36.2213-46.4039L45.3953-46.4039C46.6883-46.4039 47.7383-45.1789 47.7383-43.6709L47.7383-38.2029C47.7383-37.4949 47.5083-36.8499 47.1273-36.3669C46.3123-35.3279 45.8593-33.9719 45.8593-32.5639L45.8593-22.3439ZM62.0853-51.2739L62.0893-51.2659L62.0843-51.2759L62.0853-51.2739ZM62.0773-51.2909L62.0803-51.2829L62.0763-51.2919L62.0773-51.2909ZM62.0693-51.3079L62.0723-51.3019L62.0693-51.3089L62.0693-51.3079Z"/>
  </g>
  <g id="Medium-S" transform="matrix(1 0 0 1 1705.76 696)">
   <path class="monochrome-0 multicolor-0:tintColor hierarchical-0:primary SFSymbolsPreviewWireframe" d="M45.8593-22.3439C56.3073-22.0589 64.6013-24.2079 65.5943-35.1769C66.0543-40.2529 64.4273-46.3779 62.2023-51.0309C62.0913-51.1929 61.9933-51.3959 61.9363-51.6519C61.8863-51.8769 61.8803-52.1089 61.9193-52.3349C61.9553-52.5409 62.0263-52.7349 62.1253-52.9109C62.2973-53.3269 63.7153-56.7709 64.2653-58.1399C64.7593-59.3709 66.0713-60.0979 67.4173-59.8879C67.4183-59.8869 67.4193-59.8869 67.4213-59.8869C74.4613-58.7699 79.5433-52.5299 78.9093-45.5309C78.9093-45.5309 76.8353-22.6299 76.8353-22.6299C76.1733-15.3149 69.5183-9.92289 61.9833-10.5959C61.9833-10.5959 49.9243-12.9069 43.9783-13.4379C41.8233-13.6309 39.6573-13.6299 37.5033-13.4359C31.5883-12.9039 19.6373-10.5939 19.6373-10.5939C12.1033-9.91589 5.44435-15.3039 4.77835-22.6189C4.77835-22.6189 2.69135-45.5169 2.69135-45.5169C2.05535-52.5009 7.10935-58.7319 14.1243-59.8719C14.1253-59.8719 14.1263-59.8729 14.1273-59.8729C15.5243-60.0979 16.8793-59.3109 17.3333-58.0139C17.7883-56.7199 18.9313-53.6859 19.1543-53.0949C19.3523-52.8329 19.4793-52.5179 19.5093-52.1769C19.5313-51.9159 19.4963-51.6529 19.4043-51.4059C19.3543-51.2729 19.2953-51.1559 19.2293-51.0519C16.8623-46.3939 16.4403-40.3399 16.9043-35.2529C17.2503-31.4469 18.3593-28.6699 20.1603-26.7049C22.2483-24.4269 25.2293-23.2749 28.7763-22.7389C30.9213-22.4149 33.2653-22.3199 35.7563-22.3729C35.7563-25.8229 35.7553-29.8779 35.7543-32.5639C35.7543-33.9709 35.3023-35.3269 34.4873-36.3649C34.1093-36.8499 33.8783-37.4949 33.8783-38.2029L33.8783-43.6709C33.8783-45.1789 34.9283-46.4039 36.2213-46.4039L45.3953-46.4039C46.6883-46.4039 47.7383-45.1789 47.7383-43.6709L47.7383-38.2029C47.7383-37.4949 47.5083-36.8499 47.1273-36.3669C46.3123-35.3279 45.8593-33.9719 45.8593-32.5639L45.8593-22.3439ZM62.0853-51.2739L62.0893-51.2659L62.0843-51.2759L62.0853-51.2739ZM62.0773-51.2909L62.0803-51.2829L62.0763-51.2919L62.0773-51.2909ZM62.0693-51.3079L62.0723-51.3019L62.0693-51.3089L62.0693-51.3079Z"/>
  </g>
  <g id="Regular-S" transform="matrix(1 0 0 1 1409.04 696)">
   <path class="monochrome-0 multicolor-0:tintColor hierarchical-0:primary SFSymbolsPreviewWireframe" d="M45.8593-22.3439C56.3073-22.0589 64.6013-24.2079 65.5943-35.1769C66.0543-40.2529 64.4273-46.3779 62.2023-51.0309C62.0913-51.1929 61.9933-51.3959 61.9363-51.6519C61.8863-51.8769 61.8803-52.1089 61.9193-52.3349C61.9553-52.5409 62.0263-52.7349 62.1253-52.9109C62.2973-53.3269 63.7153-56.7709 64.2653-58.1399C64.7593-59.3709 66.0713-60.0979 67.4173-59.8879C67.4183-59.8869 67.4193-59.8869 67.4213-59.8869C74.4613-58.7699 79.5433-52.5299 78.9093-45.5309C78.9093-45.5309 76.8353-22.6299 76.8353-22.6299C76.1733-15.3149 69.5183-9.92289 61.9833-10.5959C61.9833-10.5959 49.9243-12.9069 43.9783-13.4379C41.8233-13.6309 39.6573-13.6299 37.5033-13.4359C31.5883-12.9039 19.6373-10.5939 19.6373-10.5939C12.1033-9.91589 5.44435-15.3039 4.77835-22.6189C4.77835-22.6189 2.69135-45.5169 2.69135-45.5169C2.05535-52.5009 7.10935-58.7319 14.1243-59.8719C14.1253-59.8719 14.1263-59.8729 14.1273-59.8729C15.5243-60.0979 16.8793-59.3109 17.3333-58.0139C17.7883-56.7199 18.9313-53.6859 19.1543-53.0949C19.3523-52.8329 19.4793-52.5179 19.5093-52.1769C19.5313-51.9159 19.4963-51.6529 19.4043-51.4059C19.3543-51.2729 19.2953-51.1559 19.2293-51.0519C16.8623-46.3939 16.4403-40.3399 16.9043-35.2529C17.2503-31.4469 18.3593-28.6699 20.1603-26.7049C22.2483-24.4269 25.2293-23.2749 28.7763-22.7389C30.9213-22.4149 33.2653-22.3199 35.7563-22.3729C35.7563-25.8229 35.7553-29.8779 35.7543-32.5639C35.7543-33.9709 35.3023-35.3269 34.4873-36.3649C34.1093-36.8499 33.8783-37.4949 33.8783-38.2029L33.8783-43.6709C33.8783-45.1789 34.9283-46.4039 36.2213-46.4039L45.3953-46.4039C46.6883-46.4039 47.7383-45.1789 47.7383-43.6709L47.7383-38.2029C47.7383-37.4949 47.5083-36.8499 47.1273-36.3669C46.3123-35.3279 45.8593-33.9719 45.8593-32.5639L45.8593-22.3439ZM62.0853-51.2739L62.0893-51.2659L62.0843-51.2759L62.0853-51.2739ZM62.0773-51.2909L62.0803-51.2829L62.0763-51.2919L62.0773-51.2909ZM62.0693-51.3079L62.0723-51.3019L62.0693-51.3089L62.0693-51.3079Z"/>
  </g>
  <g id="Light-S" transform="matrix(1 0 0 1 1112.33 696)">
   <path class="monochrome-0 multicolor-0:tintColor hierarchical-0:primary SFSymbolsPreviewWireframe" d="M45.8593-22.3439C56.3073-22.0589 64.6013-24.2079 65.5943-35.1769C66.0543-40.2529 64.4273-46.3779 62.2023-51.0309C62.0913-51.1929 61.9933-51.3959 61.9363-51.6519C61.8863-51.8769 61.8803-52.1089 61.9193-52.3349C61.9553-52.5409 62.0263-52.7349 62.1253-52.9109C62.2973-53.3269 63.7153-56.7709 64.2653-58.1399C64.7593-59.3709 66.0713-60.0979 67.4173-59.8879C67.4183-59.8869 67.4193-59.8869 67.4213-59.8869C74.4613-58.7699 79.5433-52.5299 78.9093-45.5309C78.9093-45.5309 76.8353-22.6299 76.8353-22.6299C76.1733-15.3149 69.5183-9.92289 61.9833-10.5959C61.9833-10.5959 49.9243-12.9069 43.9783-13.4379C41.8233-13.6309 39.6573-13.6299 37.5033-13.4359C31.5883-12.9039 19.6373-10.5939 19.6373-10.5939C12.1033-9.91589 5.44435-15.3039 4.77835-22.6189C4.77835-22.6189 2.69135-45.5169 2.69135-45.5169C2.05535-52.5009 7.10935-58.7319 14.1243-59.8719C14.1253-59.8719 14.1263-59.8729 14.1273-59.8729C15.5243-60.0979 16.8793-59.3109 17.3333-58.0139C17.7883-56.7199 18.9313-53.6859 19.1543-53.0949C19.3523-52.8329 19.4793-52.5179 19.5093-52.1769C19.5313-51.9159 19.4963-51.6529 19.4043-51.4059C19.3543-51.2729 19.2953-51.1559 19.2293-51.0519C16.8623-46.3939 16.4403-40.3399 16.9043-35.2529C17.2503-31.4469 18.3593-28.6699 20.1603-26.7049C22.2483-24.4269 25.2293-23.2749 28.7763-22.7389C30.9213-22.4149 33.2653-22.3199 35.7563-22.3729C35.7563-25.8229 35.7553-29.8779 35.7543-32.5639C35.7543-33.9709 35.3023-35.3269 34.4873-36.3649C34.1093-36.8499 33.8783-37.4949 33.8783-38.2029L33.8783-43.6709C33.8783-45.1789 34.9283-46.4039 36.2213-46.4039L45.3953-46.4039C46.6883-46.4039 47.7383-45.1789 47.7383-43.6709L47.7383-38.2029C47.7383-37.4949 47.5083-36.8499 47.1273-36.3669C46.3123-35.3279 45.8593-33.9719 45.8593-32.5639L45.8593-22.3439ZM62.0853-51.2739L62.0893-51.2659L62.0843-51.2759L62.0853-51.2739ZM62.0773-51.2909L62.0803-51.2829L62.0763-51.2919L62.0773-51.2909ZM62.0693-51.3079L62.0723-51.3019L62.0693-51.3089L62.0693-51.3079Z"/>
  </g>
  <g id="Thin-S" transform="matrix(1 0 0 1 815.622 696)">
   <path class="monochrome-0 multicolor-0:tintColor hierarchical-0:primary SFSymbolsPreviewWireframe" d="M45.8593-22.3439C56.3073-22.0589 64.6013-24.2079 65.5943-35.1769C66.0543-40.2529 64.4273-46.3779 62.2023-51.0309C62.0913-51.1929 61.9933-51.3959 61.9363-51.6519C61.8863-51.8769 61.8803-52.1089 61.9193-52.3349C61.9553-52.5409 62.0263-52.7349 62.1253-52.9109C62.2973-53.3269 63.7153-56.7709 64.2653-58.1399C64.7593-59.3709 66.0713-60.0979 67.4173-59.8879C67.4183-59.8869 67.4193-59.8869 67.4213-59.8869C74.4613-58.7699 79.5433-52.5299 78.9093-45.5309C78.9093-45.5309 76.8353-22.6299 76.8353-22.6299C76.1733-15.3149 69.5183-9.92289 61.9833-10.5959C61.9833-10.5959 49.9243-12.9069 43.9783-13.4379C41.8233-13.6309 39.6573-13.6299 37.5033-13.4359C31.5883-12.9039 19.6373-10.5939 19.6373-10.5939C12.1033-9.91589 5.44435-15.3039 4.77835-22.6189C4.77835-22.6189 2.69135-45.5169 2.69135-45.5169C2.05535-52.5009 7.10935-58.7319 14.1243-59.8719C14.1253-59.8719 14.1263-59.8729 14.1273-59.8729C15.5243-60.0979 16.8793-59.3109 17.3333-58.0139C17.7883-56.7199 18.9313-53.6859 19.1543-53.0949C19.3523-52.8329 19.4793-52.5179 19.5093-52.1769C19.5313-51.9159 19.4963-51.6529 19.4043-51.4059C19.3543-51.2729 19.2953-51.1559 19.2293-51.0519C16.8623-46.3939 16.4403-40.3399 16.9043-35.2529C17.2503-31.4469 18.3593-28.6699 20.1603-26.7049C22.2483-24.4269 25.2293-23.2749 28.7763-22.7389C30.9213-22.4149 33.2653-22.3199 35.7563-22.3729C35.7563-25.8229 35.7553-29.8779 35.7543-32.5639C35.7543-33.9709 35.3023-35.3269 34.4873-36.3649C34.1093-36.8499 33.8783-37.4949 33.8783-38.2029L33.8783-43.6709C33.8783-45.1789 34.9283-46.4039 36.2213-46.4039L45.3953-46.4039C46.6883-46.4039 47.7383-45.1789 47.7383-43.6709L47.7383-38.2029C47.7383-37.4949 47.5083-36.8499 47.1273-36.3669C46.3123-35.3279 45.8593-33.9719 45.8593-32.5639L45.8593-22.3439ZM62.0853-51.2739L62.0893-51.2659L62.0843-51.2759L62.0853-51.2739ZM62.0773-51.2909L62.0803-51.2829L62.0763-51.2919L62.0773-51.2909ZM62.0693-51.3079L62.0723-51.3019L62.0693-51.3089L62.0693-51.3079Z"/>
  </g>
  <g id="Ultralight-S" transform="matrix(1 0 0 1 518.911 696)">
   <path class="monochrome-0 multicolor-0:tintColor hierarchical-0:primary SFSymbolsPreviewWireframe" d="M45.8593-22.3439C56.3073-22.0589 64.6013-24.2079 65.5943-35.1769C66.0543-40.2529 64.4273-46.3779 62.2023-51.0309C62.0913-51.1929 61.9933-51.3959 61.9363-51.6519C61.8863-51.8769 61.8803-52.1089 61.9193-52.3349C61.9553-52.5409 62.0263-52.7349 62.1253-52.9109C62.2973-53.3269 63.7153-56.7709 64.2653-58.1399C64.7593-59.3709 66.0713-60.0979 67.4173-59.8879C67.4183-59.8869 67.4193-59.8869 67.4213-59.8869C74.4613-58.7699 79.5433-52.5299 78.9093-45.5309C78.9093-45.5309 76.8353-22.6299 76.8353-22.6299C76.1733-15.3149 69.5183-9.92289 61.9833-10.5959C61.9833-10.5959 49.9243-12.9069 43.9783-13.4379C41.8233-13.6309 39.6573-13.6299 37.5033-13.4359C31.5883-12.9039 19.6373-10.5939 19.6373-10.5939C12.1033-9.91589 5.44435-15.3039 4.77835-22.6189C4.77835-22.6189 2.69135-45.5169 2.69135-45.5169C2.05535-52.5009 7.10935-58.7319 14.1243-59.8719C14.1253-59.8719 14.1263-59.8729 14.1273-59.8729C15.5243-60.0979 16.8793-59.3109 17.3333-58.0139C17.7883-56.7199 18.9313-53.6859 19.1543-53.0949C19.3523-52.8329 19.4793-52.5179 19.5093-52.1769C19.5313-51.9159 19.4963-51.6529 19.4043-51.4059C19.3543-51.2729 19.2953-51.1559 19.2293-51.0519C16.8623-46.3939 16.4403-40.3399 16.9043-35.2529C17.2503-31.4469 18.3593-28.6699 20.1603-26.7049C22.2483-24.4269 25.2293-23.2749 28.7763-22.7389C30.9213-22.4149 33.2653-22.3199 35.7563-22.3729C35.7563-25.8229 35.7553-29.8779 35.7543-32.5639C35.7543-33.9709 35.3023-35.3269 34.4873-36.3649C34.1093-36.8499 33.8783-37.4949 33.8783-38.2029L33.8783-43.6709C33.8783-45.1789 34.9283-46.4039 36.2213-46.4039L45.3953-46.4039C46.6883-46.4039 47.7383-45.1789 47.7383-43.6709L47.7383-38.2029C47.7383-37.4949 47.5083-36.8499 47.1273-36.3669C46.3123-35.3279 45.8593-33.9719 45.8593-32.5639L45.8593-22.3439ZM62.0853-51.2739L62.0893-51.2659L62.0843-51.2759L62.0853-51.2739ZM62.0773-51.2909L62.0803-51.2829L62.0763-51.2919L62.0773-51.2909ZM62.0693-51.3079L62.0723-51.3019L62.0693-51.3089L62.0693-51.3079Z"/>
  </g>
 </g>
</svg>
