<?xml version="1.0" encoding="UTF-8" standalone="no"?>
<!DOCTYPE svg PUBLIC "-//W3C//DTD SVG 1.1//EN" "http://www.w3.org/Graphics/SVG/1.1/DTD/svg11.dtd">
<svg width="100%" height="100%" viewBox="0 0 1024 1024" version="1.1" xmlns="http://www.w3.org/2000/svg" xmlns:xlink="http://www.w3.org/1999/xlink" xml:space="preserve" xmlns:serif="http://www.serif.com/" style="fill-rule:evenodd;clip-rule:evenodd;stroke-linejoin:round;stroke-miterlimit:2;">
    <g transform="matrix(2.32727,0,0,1.44023,-269.964,-93.6146)">
        <rect x="116" y="65" width="440" height="711" style="fill:url(#_Linear1);"/>
    </g>
    <g id="Controller">
        <g transform="matrix(0.844037,-0.0441618,0.0441618,0.844037,56.9535,90.4854)">
            <path d="M512,797.338L250.25,797.338C165.759,797.338 97.162,728.741 97.162,644.25C97.162,644.25 97.162,379.75 97.162,379.75C97.162,299.084 159.694,232.914 238.88,227.08C238.891,227.079 238.901,227.078 238.911,227.077C254.672,225.94 268.95,236.349 272.683,251.675C276.43,266.974 286.07,302.916 287.95,309.911C289.89,313.114 290.981,316.857 290.967,320.798C290.956,323.812 290.291,326.788 289.018,329.52C288.331,330.997 287.552,332.278 286.718,333.393C255.672,384.318 244.838,453.245 244.838,512C244.838,555.964 254.356,588.924 272.394,613.297C293.305,641.551 325.293,657.816 364.205,667.614C406.76,678.329 457.29,681.162 512,681.162L512,797.338Z" style="fill:white;"/>
        </g>
        <g transform="matrix(0.844002,0.0448188,-0.0448188,0.844002,103.029,44.8087)">
            <path d="M512,681.162C660.574,681.162 789.162,663.363 789.162,512C789.162,453.375 764.898,384.86 735.461,333.833C734.058,332.089 732.765,329.868 731.871,326.986C731.088,324.462 730.792,321.812 730.999,319.178C731.188,316.779 731.78,314.486 732.713,312.372C734.201,307.426 746.503,266.515 751.241,250.268C755.499,235.658 769.355,225.983 784.538,227.019C784.553,227.02 784.568,227.021 784.583,227.022C864.023,232.615 926.838,298.902 926.838,379.75C926.838,379.75 926.838,644.25 926.838,644.25C926.838,728.741 858.241,797.338 773.75,797.338L512,797.338L512,681.162ZM733.908,331.164L733.962,331.257L733.899,331.149L733.908,331.164ZM733.802,330.977L733.851,331.064L733.796,330.967L733.802,330.977ZM733.697,330.789L733.737,330.86L733.695,330.785L733.697,330.789Z" style="fill:white;"/>
        </g>
        <g transform="matrix(0.485823,0,0,0.555317,256.943,299.228)">
            <path d="M616,301.806C616,279.836 595.612,262 570.5,262L479.5,262C454.388,262 434,279.836 434,301.806L434,701.194C434,723.164 454.388,741 479.5,741L570.5,741C595.612,741 616,723.164 616,701.194L616,301.806Z" style="fill:white;"/>
        </g>
        <g transform="matrix(0.864588,0,0,1.2943,119.342,215.63)">
            <path d="M524.312,193.75C524.312,184.505 513.077,177 499.237,177L409.075,177C395.236,177 384,184.505 384,193.75L384,227.25C384,236.495 395.236,244 409.075,244L499.237,244C513.077,244 524.312,236.495 524.312,227.25L524.312,193.75Z" style="fill:white;"/>
        </g>
    </g>
    <defs>
        <linearGradient id="_Linear1" x1="0" y1="0" x2="1" y2="0" gradientUnits="userSpaceOnUse" gradientTransform="matrix(304.219,-711,440,491.59,177.016,776)"><stop offset="0" style="stop-color:rgb(180,133,238);stop-opacity:1"/><stop offset="0.51" style="stop-color:rgb(119,159,250);stop-opacity:1"/><stop offset="1" style="stop-color:rgb(134,212,250);stop-opacity:1"/></linearGradient>
    </defs>
</svg>
