<?xml version="1.0" encoding="UTF-8" standalone="no"?><!DOCTYPE svg PUBLIC "-//W3C//DTD SVG 1.1//EN" "http://www.w3.org/Graphics/SVG/1.1/DTD/svg11.dtd"><svg width="100%" height="100%" viewBox="0 0 1024 1024" version="1.1" xmlns="http://www.w3.org/2000/svg" xmlns:xlink="http://www.w3.org/1999/xlink" xml:space="preserve" xmlns:serif="http://www.serif.com/" style="fill-rule:evenodd;clip-rule:evenodd;stroke-linejoin:round;stroke-miterlimit:2;"><g id="Controller"><path id="Controller1" serif:id="Controller" d="M557.076,626.808c93.081,2.538 166.972,-16.614 175.822,-114.338c4.096,-45.22 -10.397,-99.792 -30.22,-141.241c-0.993,-1.444 -1.865,-3.25 -2.374,-5.536c-0.446,-2.002 -0.496,-4.067 -0.147,-6.085c0.317,-1.837 0.948,-3.563 1.836,-5.128c1.528,-3.709 14.161,-34.393 19.06,-46.589c4.404,-10.967 16.089,-17.446 28.079,-15.569c0.012,0.002 0.024,0.004 0.036,0.005c62.727,9.953 108.004,65.542 102.356,127.904c0,0 -18.477,204.022 -18.477,204.022c-5.903,65.172 -65.197,113.215 -132.327,107.217c-0,0 -107.428,-20.589 -160.407,-25.322c-19.194,-1.715 -38.497,-1.709 -57.69,0.019c-52.696,4.743 -159.165,25.32 -159.165,25.32c-67.127,6.042 -126.447,-41.961 -132.386,-107.129c0,-0 -18.59,-204.01 -18.59,-204.01c-5.67,-62.218 39.359,-117.727 101.862,-127.89c0.008,-0.001 0.016,-0.003 0.024,-0.004c12.442,-2.005 24.518,5.003 28.56,16.557c4.053,11.532 14.238,38.565 16.223,43.826c1.767,2.332 2.897,5.141 3.162,8.181c0.203,2.326 -0.116,4.669 -0.935,6.867c-0.442,1.188 -0.971,2.232 -1.555,3.152c-21.087,41.498 -24.849,95.437 -20.72,140.755c3.09,33.91 12.969,58.651 29.013,76.16c18.599,20.297 45.157,30.555 76.76,35.329c19.112,2.887 39.991,3.741 62.19,3.265c-0.003,-30.736 -0.009,-66.865 -0.021,-90.79c0,-12.537 -4.026,-24.619 -11.285,-33.863c-3.374,-4.327 -5.432,-10.075 -5.432,-16.379l0,-48.712c0,-13.442 9.355,-24.356 20.877,-24.356l81.735,0c11.522,0 20.877,10.914 20.877,24.356l-0,48.712c-0,6.304 -2.057,12.052 -5.448,16.361c-7.264,9.249 -11.293,21.337 -11.293,33.881l-0,91.052Zm144.554,-257.748l0.037,0.076l-0.043,-0.088l0.006,0.012Zm-0.071,-0.151l0.033,0.07l-0.037,-0.078l0.004,0.008Zm-0.07,-0.153l0.026,0.057l-0.028,-0.061l0.002,0.004Z" style="fill:#fff;"/></g></svg>